<svg xmlns="http://www.w3.org/2000/svg" viewBox="0 0 135.93 122.03"><defs><style>.cls-1{isolation:isolate;}.cls-2{fill:#e30613;}.cls-2,.cls-5,.cls-6,.cls-7,.cls-8{fill-rule:evenodd;}.cls-3{fill:#fff;}.cls-4,.cls-8{fill:#1d1d1b;}.cls-5{fill:#ffd000;}.cls-6{fill:#f59c00;}.cls-7{fill:#bb1e2c;mix-blend-mode:multiply;}</style></defs><title>Asset 5</title><g class="cls-1"><g id="Layer_2" data-name="Layer 2"><g id="Layer_1-2" data-name="Layer 1"><path class="cls-2" d="M1,120.3v-7H3.48V97.21H.92V90.3H3.48V84.4c0-4,1.53-10.82,11.75-10.82a29.29,29.29,0,0,1,8.34,1.26L20.38,81a9.54,9.54,0,0,0-3.15-.47c-1.72,0-2.6,1.32-2.6,3.91v5.9h5.68v6.91H14.63v16.11h3.75v7Z"/><path class="cls-3" d="M15.23,74.18a30.38,30.38,0,0,1,7.48,1l-2.63,5a10.74,10.74,0,0,0-2.85-.35c-1.46,0-3.2.79-3.2,4.51v6.5h5.68v5.71H14v17.31h3.75v5.78H1.59v-5.78H4.08V96.61H1.52V90.9H4.08V84.4c0-4.66,1.94-10.22,11.15-10.22m0-1.2C4,73,2.88,80.85,2.88,84.4v5.3H.32v8.11H2.88v14.91H.39v8.18H19v-8.18H15.23V97.81h5.68V89.7H15.23V84.4c0-2.25.63-3.31,2-3.31a8.12,8.12,0,0,1,3.43.63l3.74-7.18C22.78,73.73,18.48,73,15.23,73Z"/><path class="cls-2" d="M40.94,121.11a17.78,17.78,0,0,1-12.65-4.85,15.12,15.12,0,0,1-4.16-11.08c.06-10.26,8.35-15.63,16.49-15.63,10,.13,16.58,6.37,16.75,15.89a15,15,0,0,1-4.12,11A17,17,0,0,1,40.94,121.11Zm-.32-24.64c-2.79,0-4.9,3.77-4.9,8.77,0,5.35,2.14,9.08,5.22,9.08,2.89,0,4.84-3.57,4.84-8.9s-2-8.89-5.14-9Z"/><path class="cls-3" d="M40.62,90.15c9.79.13,16,6,16.15,15.29a14.36,14.36,0,0,1-4,10.57,16.43,16.43,0,0,1-11.88,4.5,17.19,17.19,0,0,1-12.22-4.67,14.5,14.5,0,0,1-4-10.66c.06-9.86,8-15,15.89-15m.32,24.77c3.3,0,5.44-3.73,5.44-9.5s-2.25-9.48-5.76-9.56c-3.13,0-5.5,4-5.5,9.38,0,5.7,2.39,9.68,5.82,9.68m-.32-26c-8.6,0-17,5.81-17.09,16.23-.12,11,8.49,16.53,17.41,16.53,9.48,0,17.15-5.93,17-16.29S50.48,89.08,40.62,89Zm.32,24.77c-2.62,0-4.62-3.37-4.62-8.48,0-4.56,1.87-8.18,4.3-8.18,2.94.07,4.56,3.69,4.56,8.36s-1.56,8.3-4.24,8.3Z"/><path class="cls-2" d="M83,120.3V103.57c0-1.59,0-3.77-1.29-5.08a3.8,3.8,0,0,0-2.8-1c-2.88,0-4.53,2.34-4.53,6.4v9.46h4.49v7h-18v-7h2.62V97.21H60.81V90.3H73.08l1.68,4.53.66-.91c2.28-3.14,5.12-4.74,8.44-4.74,7.29,0,10.69,4.17,10.69,13.13v11h2.93v7Z"/><path class="cls-3" d="M83.86,89.78c7,0,10.09,3.86,10.09,12.53v11.61h2.93v5.78H83.56V103.57c0-1.6,0-4-1.47-5.5a4.35,4.35,0,0,0-3.22-1.21c-3.26,0-5.13,2.56-5.13,7v10.06h4.49v5.78H61.41v-5.78H64V96.61H61.41V90.9H72.67L73.81,94l.78,2.1,1.32-1.82c2.19-3,4.79-4.49,8-4.49m0-1.2c-3.93,0-6.8,2.06-8.92,5L73.5,89.7H60.21v8.11h2.62v14.91H60.21v8.18H79.43v-8.18H74.94v-8.86c0-2.68.75-5.8,3.93-5.8,3.68,0,3.49,3.68,3.49,5.8v17H98.08v-8.18H95.15V102.31c0-6.56-1.62-13.73-11.29-13.73Z"/><path class="cls-2" d="M117.11,121.11a17.78,17.78,0,0,1-12.65-4.85,15.12,15.12,0,0,1-4.16-11.08c.06-10.26,8.35-15.63,16.5-15.63,10,.13,16.57,6.37,16.74,15.89a15,15,0,0,1-4.12,11A17,17,0,0,1,117.11,121.11Zm-.31-24.64c-2.8,0-4.91,3.77-4.91,8.77,0,5.35,2.15,9.08,5.22,9.08,2.9,0,4.84-3.57,4.84-8.9s-2-8.89-5.14-9Z"/><path class="cls-3" d="M116.79,90.15c9.79.13,16,6,16.15,15.29A14.39,14.39,0,0,1,129,116a16.47,16.47,0,0,1-11.89,4.5,17.2,17.2,0,0,1-12.22-4.67,14.5,14.5,0,0,1-4-10.66c.06-9.86,8-15,15.89-15m.32,24.77c3.3,0,5.44-3.73,5.44-9.5s-2.25-9.48-5.75-9.56c-3.14,0-5.51,4-5.51,9.38,0,5.7,2.39,9.68,5.82,9.68m-.31-26c-8.61,0-17,5.81-17.1,16.23-.12,11,8.49,16.53,17.41,16.53,9.48,0,17.15-5.93,17-16.29S126.65,89.08,116.8,89Zm.31,24.77c-2.62,0-4.62-3.37-4.62-8.48,0-4.56,1.87-8.18,4.31-8.18,2.93.07,4.55,3.69,4.55,8.36s-1.56,8.3-4.24,8.3Z"/><path class="cls-4" d="M19.3,121.22H.06V112.4h2.5V98.14H0V89.38H2.56v-5C2.56,80,4.2,72.66,15.23,72.66c3.27,0,7.62.75,9.32,1.59l.29.15-4,7.74L20.53,82a8.12,8.12,0,0,0-3.3-.59c-.78,0-1.67.34-1.67,3v5h5.68v8.76H15.56V112.4H19.3ZM.71,120.57H18.65v-7.52H14.91V97.49h5.68V90H14.91V84.4c0-.9,0-3.63,2.32-3.63a9.05,9.05,0,0,1,3.28.53L24,74.7a28.18,28.18,0,0,0-8.73-1.39c-10.46,0-12,7-12,11.09V90H.65v7.46H3.21v15.56H.71Z"/><path class="cls-4" d="M40.94,122a18.69,18.69,0,0,1-13.3-5.12,16,16,0,0,1-4.43-11.74c.05-8.22,6.05-16.54,17.42-16.54,10.55.13,17.48,6.72,17.66,16.79a15.87,15.87,0,0,1-4.38,11.66A18,18,0,0,1,40.94,122Zm-.32-32.75c-10.94,0-16.72,8-16.76,15.9a15.29,15.29,0,0,0,4.24,11.27,18,18,0,0,0,12.84,4.93,17.36,17.36,0,0,0,12.51-4.75,15.23,15.23,0,0,0,4.19-11.2C57.47,95.75,50.79,89.41,40.62,89.28Zm.32,24.77c-2.91,0-4.94-3.63-4.94-8.81,0-4.85,2-8.5,4.63-8.5h0c3,.06,4.87,3.47,4.87,8.68S43.67,114.05,40.94,114.05Zm-.32-16.66c-2.23,0-4,3.45-4,7.85,0,4.73,1.81,8.16,4.3,8.16s3.91-3.21,3.91-8S43.19,97.45,40.62,97.39Z"/><path class="cls-4" d="M98.4,121.22H82V103.57c0-1.43,0-3.39-1-4.43a2.85,2.85,0,0,0-2.14-.75c-3,0-3.61,3-3.61,5.47v8.54h4.49v8.82H59.89V112.4h2.62V98.14H59.89V89.38H73.73L75,92.9a10.89,10.89,0,0,1,8.83-4.64c7.81,0,11.61,4.59,11.61,14V112.4H98.4Zm-15.72-.65H97.76v-7.52H94.83V102.31c0-5.76-1.14-13.41-11-13.41-3.42,0-6.33,1.64-8.66,4.86l-.36.49L73.28,90H60.54v7.46h2.62v15.56H60.54v7.52H79.1v-7.52H74.61v-9.19c0-4,1.51-6.12,4.26-6.12a3.54,3.54,0,0,1,2.6.94c1.23,1.24,1.22,3.35,1.22,4.89v17Z"/><path class="cls-4" d="M117.11,122a18.71,18.71,0,0,1-13.3-5.12,16,16,0,0,1-4.43-11.74c.05-8.22,6.05-16.54,17.42-16.54,10.55.13,17.48,6.72,17.66,16.79a15.87,15.87,0,0,1-4.38,11.66A18,18,0,0,1,117.11,122Zm-.32-32.75c-10.94,0-16.72,8-16.76,15.9a15.33,15.33,0,0,0,4.24,11.27,18,18,0,0,0,12.84,4.93,17.34,17.34,0,0,0,12.51-4.75,15.28,15.28,0,0,0,4.2-11.2C133.64,95.75,127,89.41,116.79,89.28Zm.32,24.77c-2.91,0-4.94-3.63-4.94-8.81,0-4.77,2-8.5,4.63-8.5h0c3,.06,4.87,3.47,4.87,8.68S119.84,114.05,117.11,114.05Zm-.32-16.66c-2.23,0-4,3.45-4,7.85,0,4.73,1.8,8.16,4.29,8.16s3.92-3.21,3.92-8S119.37,97.45,116.79,97.39Z"/><path class="cls-5" d="M61.7,20.46s11.38,2.83,10.58,10.42l-10.37-.46Z"/><path class="cls-6" d="M68.88,23.92a6.35,6.35,0,0,1-1.33,3,8.19,8.19,0,0,1-4,2.52,4.77,4.77,0,0,1-1.62.21l0,.77,10.37.46C72.6,27.83,71,25.56,68.88,23.92Z"/><path class="cls-2" d="M55.1,14.6s8.62-5,4.11-10.14S52.06,6.9,51.31,7c-1.5-5.51-9.09-7.49-10.55,1.3-2-.32-4.13-2.57-6.55,1.22-4.21,6.61,5.23,7.29,5.23,7.29Z"/><path class="cls-7" d="M59.93,5.45c-.25,2.28-2.67,4.07-4.87,4.49a11.26,11.26,0,0,1-2.9-.09c-.9-.06-1.83.09-2.71,0A6.41,6.41,0,0,1,45.57,8.1a5.06,5.06,0,0,1-.85-5.68C43,2.93,41.4,4.68,40.78,8.13a2.89,2.89,0,0,1,0,2.52c-1.39,3-5,1.66-7.14-.21-2.76,5.73,5.75,6.34,5.75,6.34L55.1,14.6S62.64,10.21,59.93,5.45Z"/><path class="cls-4" d="M53.36,27.38a3.19,3.19,0,1,1,3.25-3.19A3.22,3.22,0,0,1,53.36,27.38Zm0-4.95a1.76,1.76,0,1,0,1.83,1.76A1.8,1.8,0,0,0,53.36,22.43Z"/><path class="cls-4" d="M72.28,32.66l-.24,0a1.77,1.77,0,0,1-1.52-2c.75-5.58-8.19-7.64-8.28-7.66A1.77,1.77,0,1,1,63,19.53a22,22,0,0,1,5.71,2.29c4,2.35,5.82,5.57,5.31,9.3A1.77,1.77,0,0,1,72.28,32.66Z"/><path class="cls-4" d="M72.28,32.66h-.19L61.21,31.51A1.77,1.77,0,1,1,61.58,28l10.88,1.14a1.77,1.77,0,0,1-.18,3.54Z"/><path class="cls-4" d="M38.18,18.43H38a8.17,8.17,0,0,1-5.48-2.76,6,6,0,0,1-1-5c.62-3.14,2.35-4.4,3.69-4.9a7.13,7.13,0,0,1,4.23-.1A8.15,8.15,0,0,1,45,.25a5.31,5.31,0,0,1,4.34.48,7.3,7.3,0,0,1,2.48,2.69A6.82,6.82,0,0,1,56.28,1.2c1.33,0,3.34.51,5.14,3.29a6.78,6.78,0,0,1,1,6.19c-1.38,3.83-6.24,5.44-6.79,5.61a1.78,1.78,0,1,1-1.06-3.39c1-.32,3.85-1.58,4.52-3.43a3.45,3.45,0,0,0-.65-3.06c-.5-.76-1.25-1.66-2-1.66h0c-1.19,0-2.81,1.87-3.52,3.11l-2.33,4-1-4.54c-.15-.69-.84-2.84-2-3.55A1.71,1.71,0,0,0,46,3.66c-3.19.94-3.45,4.42-3.46,4.57l-.22,3.32-2.64-2a4.56,4.56,0,0,0-3.27-.38c-.25.11-1,.44-1.37,2.23a2.59,2.59,0,0,0,.33,2.15,4.71,4.71,0,0,0,2.93,1.36,1.77,1.77,0,0,1-.14,3.54Z"/><path class="cls-4" d="M72.56,62.82a2,2,0,0,1-2-1.74C69,47.75,58.86,45.37,49,43.07,41.12,41.21,32.92,39.28,31.44,31a13.78,13.78,0,0,1,2.85-11.38,21.11,21.11,0,0,1,13.57-7C60.42,12.19,64.38,20,64.72,24.74c.36,4.94-4.19,9.22-4.38,9.4a2,2,0,1,1-2.68-2.89h0c.93-.87,3.31-3.7,3.13-6.22-.07-.91-1-8.86-12.8-8.49a17.18,17.18,0,0,0-10.64,5.57,9.81,9.81,0,0,0-2,8.21c1,5.44,6.19,6.93,14.62,8.91C60,41.6,72.6,44.55,74.52,60.61a2,2,0,0,1-1.73,2.19Z"/><path class="cls-8" d="M72.93,54.57A23.79,23.79,0,0,0,59.29,42.41a25.07,25.07,0,0,0-8.35-1.54A22,22,0,0,0,41.16,43a27.91,27.91,0,0,0-7.84,5.68,16.25,16.25,0,0,0-2.16,2.73A6.64,6.64,0,0,0,30,54.28c0,.46.15.69.46.69s.45-.19.68-.57c.38-.61.87-1.31,1.48-2.1a13.89,13.89,0,0,1,2.5-2.45,36,36,0,0,1,6-4,17.79,17.79,0,0,1,8.64-2,21.87,21.87,0,0,1,7.84,1.42,21.36,21.36,0,0,1,6.65,4,19.46,19.46,0,0,1,4.61,6,16.16,16.16,0,0,1,1.7,7.28,23.1,23.1,0,0,1-1.08,6.88,23.4,23.4,0,0,1-3.07,6.36,19.93,19.93,0,0,1-4.83,5,15.86,15.86,0,0,1-6.36,2.72,22,22,0,0,1-7,.23A13.12,13.12,0,0,1,41.84,81q.57-1.71,1.94-5.35T46.56,68c.95-2.69,1.78-5.26,2.5-7.73a21.83,21.83,0,0,0,1.08-5.4,6.24,6.24,0,0,0-1.82-4.49A5.8,5.8,0,0,0,44,48.49a10.44,10.44,0,0,0-6.36,2.21,20.27,20.27,0,0,0-5,5.46,25.59,25.59,0,0,0-3.07,6.93,17.14,17.14,0,0,0-.69,6.54,17.19,17.19,0,0,0,5.23,12.28c-.22.6-.66,1.8-1.3,3.58a72.18,72.18,0,0,0-2.54,7.35,23,23,0,0,0-.57,5.34c0,1.6.63,2.54,1.76,2.85a3.07,3.07,0,0,0,2.45-.12,3.1,3.1,0,0,0,1.64-1.82q.91-2.61,1.77-5.4c.56-1.85,2.1-5.38,2.7-7.12a20.64,20.64,0,0,0,9.1,2.61,26.66,26.66,0,0,0,9.43-1.25,20.44,20.44,0,0,0,6.88-3.75,25,25,0,0,0,5.06-5.68,29,29,0,0,0,3.18-6.71A24.69,24.69,0,0,0,74.92,65,21.3,21.3,0,0,0,72.93,54.57ZM36.71,76.29a10,10,0,0,1-1.29-3,25.15,25.15,0,0,1-.4-2.78,24.48,24.48,0,0,1,.51-4.89,18.61,18.61,0,0,1,1.65-4.72A15.45,15.45,0,0,1,40,57.07a9.28,9.28,0,0,1,3.83-2.39l.66-.19a100.27,100.27,0,0,1-3.81,10.93C39.31,68.86,38.15,72.8,36.71,76.29Z"/><path class="cls-8" d="M91.23,79.29a1.2,1.2,0,0,0-1.19.34l-1.93,1.94a3.84,3.84,0,0,1-2.5,1.13,8.14,8.14,0,0,0,1.3-2c.34-.76.67-1.56,1-2.39a11.64,11.64,0,0,0,.68-5.34,6.85,6.85,0,0,0-1.36-3.47,3.16,3.16,0,0,0-2.5-1.19,4.28,4.28,0,0,0-3,1.47,6.92,6.92,0,0,0-1.59,3,12.66,12.66,0,0,0-.51,4,14.23,14.23,0,0,0,.62,3.86A4.83,4.83,0,0,0,82,83.16c-.46.38-.87.72-1.25,1a2.31,2.31,0,0,1-1.48.45q-1.24,0-1.59-2t1.25-6.48Q80,73,79.47,71.79a1.68,1.68,0,0,0-1.88-1.08,5.56,5.56,0,0,0-2.9,1.65,10.16,10.16,0,0,0-2.5,3.75,16.84,16.84,0,0,0-.91,4.09,15,15,0,0,0,.17,4.32,7,7,0,0,0,1.65,3.41,4.7,4.7,0,0,0,3.64,1.36,8.3,8.3,0,0,0,3.69-1.08A13.28,13.28,0,0,0,84.81,84a5.83,5.83,0,0,0,3.92-1.3,28.1,28.1,0,0,0,2.56-2.45C91.82,79.67,91.8,79.37,91.23,79.29Zm-6.14-2.21A15.53,15.53,0,0,1,83,81.79a5.4,5.4,0,0,1-1.08-3.12A30.83,30.83,0,0,1,82,75.31a3.48,3.48,0,0,1,.28-1.19,6.32,6.32,0,0,1,.63-1.25,1.18,1.18,0,0,1,.85-.57c.34,0,.7.21,1.08.74A5.28,5.28,0,0,1,85.09,77.08Z"/><path class="cls-8" d="M97.77,73a88.9,88.9,0,0,1,2.5-8.87,9.36,9.36,0,0,0,2.39.17,4.2,4.2,0,0,0,2.5-1.08,7.08,7.08,0,0,0,1.59-5.11A9.35,9.35,0,0,0,105.27,53a3.2,3.2,0,0,0-2-1.42,4.28,4.28,0,0,0-2.27.29,6.64,6.64,0,0,0-2.1,1.36A21.23,21.23,0,0,0,97.2,55a19.53,19.53,0,0,0-1.7,2.5,24.6,24.6,0,0,0-1.48,3c-.61-.15-1.27-.28-2-.4a10.44,10.44,0,0,0-2.16-.11,6.64,6.64,0,0,0-2,.4,2.41,2.41,0,0,0-1.36,1.25,1.14,1.14,0,0,0-.12.85.76.76,0,0,0,.34.51c.08.08.14,0,.17-.17a1.32,1.32,0,0,1,.4-.62,2.58,2.58,0,0,1,1-.57,6.48,6.48,0,0,1,1.94-.23,4.94,4.94,0,0,1,1.42.23q.74.22,1.65.45-.91,2.28-1.94,5.8A66.93,66.93,0,0,0,89.75,75,52.09,52.09,0,0,0,89,82a12,12,0,0,0,.91,5.57,3.2,3.2,0,0,0,.9.8,5.76,5.76,0,0,0,1.54.56,11.65,11.65,0,0,0,2.67.23,5.76,5.76,0,0,0,3.69-1.59c1.26-1.06,2.75-3.26,4.49-6.59a8,8,0,0,0,.23-.8c.15-.53,0-.79-.34-.79s-.64.22-.79.68c-.16.3-.42.77-.8,1.42a21,21,0,0,1-1.25,1.87c-.46.61-.91,1.16-1.36,1.65a2.73,2.73,0,0,1-1.14.85c-.61.16-1-.3-1.2-1.36a18.34,18.34,0,0,1,0-4.49A59.74,59.74,0,0,1,97.77,73Zm4.09-13.75a10.85,10.85,0,0,1,.91-2.16c.38-.38.72-.31,1,.22A13.11,13.11,0,0,1,104,59a4.55,4.55,0,0,1-.17,1.64,2.16,2.16,0,0,1-.91,1.2A2.57,2.57,0,0,1,101,62C101.33,61,101.63,60,101.86,59.29Z"/><path class="cls-8" d="M112.58,72.55a90.74,90.74,0,0,1,2.5-8.86,10.36,10.36,0,0,0,2.39.17,4.3,4.3,0,0,0,2.5-1.08,7,7,0,0,0,1.59-5.12,9.29,9.29,0,0,0-1.48-5.11,3.11,3.11,0,0,0-2-1.42,4.3,4.3,0,0,0-2.28.28,6.64,6.64,0,0,0-2.1,1.36q-1,.91-1.65,1.71a21.44,21.44,0,0,0-1.7,2.5,26.18,26.18,0,0,0-1.48,3c-.61-.15-1.27-.28-2-.39s-1.79-.73-2.16-.12c-.9,1.5,2.14,2.22.4,1.42-.42-.18.93.08,1.42.23s1,.3,1.65.46c-.61,1.51-1.25,3.44-1.94,5.79a64.56,64.56,0,0,0-1.64,7.16,50.59,50.59,0,0,0-.74,7,11.93,11.93,0,0,0,.91,5.57,3,3,0,0,0,.91.8,6,6,0,0,0,1.53.57,12.42,12.42,0,0,0,2.67.22,5.78,5.78,0,0,0,3.7-1.59c1.25-1.06,2.74-3.26,4.49-6.59.07-.23.15-.49.22-.8.16-.53,0-.79-.34-.79s-.64.23-.79.68-.42.78-.8,1.42a20.43,20.43,0,0,1-1.25,1.88c-.45.6-.91,1.15-1.36,1.64a2.78,2.78,0,0,1-1.14.86c-.61.15-1-.31-1.19-1.37a17.38,17.38,0,0,1,0-4.49A59.46,59.46,0,0,1,112.58,72.55Zm4.09-13.75a10.85,10.85,0,0,1,.91-2.16c.38-.38.72-.3,1,.23a12.72,12.72,0,0,1,.17,1.59,4.42,4.42,0,0,1-.17,1.65,2.14,2.14,0,0,1-.91,1.19,2.61,2.61,0,0,1-1.93.23C116.14,60.47,116.44,59.56,116.67,58.8Z"/><path class="cls-8" d="M135.48,78.8a1.19,1.19,0,0,0-1.19.35l-1.93,1.93a3.82,3.82,0,0,1-2.5,1.13,8.28,8.28,0,0,0,1.31-2c.34-.76.66-1.56,1-2.39a11.62,11.62,0,0,0,.68-5.34A6.76,6.76,0,0,0,131.45,69a3.19,3.19,0,0,0-2.5-1.19,4.25,4.25,0,0,0-3,1.48,6.82,6.82,0,0,0-1.59,2.95,12.69,12.69,0,0,0-.51,4,14.24,14.24,0,0,0,.63,3.86,4.72,4.72,0,0,0,1.7,2.62c-.45.38-.87.72-1.25,1a2.32,2.32,0,0,1-1.48.46c-.83,0-1.36-.69-1.59-2.05s.19-3.52,1.25-6.48q1.14-3.06.57-4.32a1.67,1.67,0,0,0-1.88-1.08A5.61,5.61,0,0,0,119,71.87a10.23,10.23,0,0,0-2.51,3.75,16.39,16.39,0,0,0-.9,4.09,14.36,14.36,0,0,0,.17,4.32,6.82,6.82,0,0,0,1.64,3.41A4.71,4.71,0,0,0,121,88.81a8.37,8.37,0,0,0,3.7-1.08,13.31,13.31,0,0,0,4.37-4.27,5.83,5.83,0,0,0,3.92-1.3,25.66,25.66,0,0,0,2.56-2.45C136.07,79.18,136.05,78.88,135.48,78.8Zm-6.13-2.21a15.7,15.7,0,0,1-2.11,4.71,5.37,5.37,0,0,1-1.08-3.12,33.37,33.37,0,0,1,.06-3.35,3.73,3.73,0,0,1,.28-1.2,6.32,6.32,0,0,1,.63-1.25,1.18,1.18,0,0,1,.85-.57c.34,0,.7.21,1.08.74A5.33,5.33,0,0,1,129.35,76.59Z"/></g></g></g></svg>