<svg xmlns="http://www.w3.org/2000/svg" viewBox="0 0 149.59 147.71"><defs><style>.cls-1{isolation:isolate;}.cls-2{fill:#c6c5bb;stroke:#c6c5bb;stroke-linecap:round;stroke-linejoin:round;stroke-width:6px;}.cls-3,.cls-5{fill:#fff;}.cls-3{stroke:#555454;stroke-miterlimit:10;stroke-width:0.75px;}.cls-4{fill:#e30613;}.cls-10,.cls-4,.cls-7,.cls-8,.cls-9{fill-rule:evenodd;}.cls-10,.cls-6{fill:#1d1d1b;}.cls-7{fill:#ffd000;}.cls-8{fill:#f59c00;}.cls-9{fill:#bb1e2c;mix-blend-mode:multiply;}</style></defs><title>Asset 4</title><g class="cls-1"><g id="Layer_2" data-name="Layer 2"><g id="Layer_1-2" data-name="Layer 1"><path class="cls-2" d="M145.77,111.87c-.13-7.39-3.43-13.51-8.94-17.16.42-.43.84-.91,1.26-1.43a8.81,8.81,0,0,0,4.34-2,31.27,31.27,0,0,0,2.83-2.7,4,4,0,0,0,1.13-4.16,3.8,3.8,0,0,0-3-2.49,12.88,12.88,0,0,0,0-3.51,10.1,10.1,0,0,0-2.16-5.2,6.57,6.57,0,0,0-5.12-2.4,7.56,7.56,0,0,0-5.4,2.49l-.09.1a5.23,5.23,0,0,0-2.07-.12,8.34,8.34,0,0,0-4.33,2.13c.15-.53.31-1.08.48-1.63h.08a7.64,7.64,0,0,0,4.53-1.86,4.83,4.83,0,0,0,.4-.38A10.44,10.44,0,0,0,132.21,64a12.7,12.7,0,0,0-2.14-7,6.53,6.53,0,0,0-4.33-2.8,7.83,7.83,0,0,0-4.07.49,10.39,10.39,0,0,0-3.18,2.06,24.54,24.54,0,0,0-1.91,2l-.07.09-.29.37a11.23,11.23,0,0,0-1-1.69,6.49,6.49,0,0,0-4.33-2.8,7.83,7.83,0,0,0-4.07.49,10,10,0,0,0-3.18,2.06,24.6,24.6,0,0,0-1.91,2l-.07.09a23.08,23.08,0,0,0-2,2.92c-.15.27-.31.54-.46.82A13.42,13.42,0,0,0,96.86,63a10.2,10.2,0,0,0-3,.61,5.94,5.94,0,0,0-3.24,2.94,4.57,4.57,0,0,0-.34,3.35A4.44,4.44,0,0,0,91,71.37a7.92,7.92,0,0,0-4.54,2.43.94.94,0,0,1-.1.1,5.59,5.59,0,0,0-1-.15c.08-.73.15-1.44.17-2.15a25.72,25.72,0,0,0-1.41-9.84C81.19,51.5,73.68,47.08,66.21,44.59a5.43,5.43,0,0,0,3.62-1.44,19,19,0,0,0,1.33-1.41l7.72.81a5.35,5.35,0,0,0,1.5-.06,3,3,0,0,0,.43-.1l.46-.14.45-.2c.14-.07.29-.14.4-.21a4,4,0,0,0,.38-.26,4.68,4.68,0,0,0,.37-.29,3.06,3.06,0,0,0,.31-.3,4.48,4.48,0,0,0,.36-.4c.09-.11.17-.24.23-.32a5.06,5.06,0,0,0,.29-.48c.07-.13.12-.26.18-.39s.12-.3.18-.46a3.81,3.81,0,0,0,.09-.38c0-.15.07-.3.1-.45a1.23,1.23,0,0,0,0-.19s0-.08,0-.11v-.06c.55-5-1.93-9.43-7-12.44A25.41,25.41,0,0,0,72.4,23a15.4,15.4,0,0,0-1.35-1.67,10.24,10.24,0,0,0,1.77-3.05,10.33,10.33,0,0,0-1.35-9.24c-2.6-4-5.73-4.87-7.89-4.87h-.25a8.75,8.75,0,0,0-3.74,1,10.08,10.08,0,0,0-1.32-1,8.82,8.82,0,0,0-7.1-.83,11.42,11.42,0,0,0-6.59,5h0A9.63,9.63,0,0,0,41.19,9c-1.77.67-4.89,2.52-5.86,7.47A9.51,9.51,0,0,0,37,24.22a9.67,9.67,0,0,0,.85,1,17.13,17.13,0,0,0-2.62,12.89,14.78,14.78,0,0,0,7.68,10.6A31.11,31.11,0,0,0,38,52.76a19.82,19.82,0,0,0-2.62,3.3,9.65,9.65,0,0,0-1.67,4.4c0,.1,0,.21,0,.31A4.08,4.08,0,0,0,35.11,64a29.89,29.89,0,0,0-1.74,4.68,20.64,20.64,0,0,0-.8,7.69c0,.11,0,.22,0,.34a33.43,33.43,0,0,0-10.24-1.64C10,75.06,5.57,83.25,5.57,90.91v1A3.47,3.47,0,0,0,3,95.25v10.06a3.46,3.46,0,0,0,2.56,3.33V115a3.45,3.45,0,0,0-2.5,3.31v10.13a3.46,3.46,0,0,0,3.45,3.45H17a6.59,6.59,0,0,0-1.38,1A6.46,6.46,0,0,0,13.77,136a3.32,3.32,0,0,0-.95.17,3.23,3.23,0,0,0-1-.18H10.15a3.23,3.23,0,0,0-1,.18,3.24,3.24,0,0,0-1-.18H6.45A3.45,3.45,0,0,0,3,139.44v1.64a3.45,3.45,0,0,0,3.45,3.45H8.08a3.24,3.24,0,0,0,1-.18,3.23,3.23,0,0,0,1,.18h1.64a3.23,3.23,0,0,0,1-.18,3.24,3.24,0,0,0,1,.18h1.63a3.42,3.42,0,0,0,1.84-.54,6.54,6.54,0,0,0,2.81.64,6.75,6.75,0,0,0,1.57-.18,3.55,3.55,0,0,0,.73.08h2.42a3.45,3.45,0,0,0,1.29-.25,7.57,7.57,0,0,0,2.54.43A7.73,7.73,0,0,0,32,144a6.55,6.55,0,0,0,1-.61,3.41,3.41,0,0,0,2.56,1.16H39a3.49,3.49,0,0,0,1.07-.19,5.76,5.76,0,0,0,1.77.29,6,6,0,0,0,1.41-.16,3.36,3.36,0,0,0,.63.06H46a3.51,3.51,0,0,0,1.7-.46,3.44,3.44,0,0,0,1.69.46h2.38a3.67,3.67,0,0,0,.75-.08,6.83,6.83,0,0,0,1.58.18,6.6,6.6,0,0,0,2.33-.41,3.55,3.55,0,0,0,1.42.31h4a3.46,3.46,0,0,0,1.6-.41,5.64,5.64,0,0,0,2.35.51,6,6,0,0,0,1.41-.16,3.36,3.36,0,0,0,.63.06h2.21l.23,0,.23,0h1.13l.34,0a7.26,7.26,0,0,0,1.34.12,6.57,6.57,0,0,0,2.84-.61,5.67,5.67,0,0,0,2.55.61,6.06,6.06,0,0,0,1.42-.16,3.21,3.21,0,0,0,.63.06H83a3.42,3.42,0,0,0,2.44-1,5.7,5.7,0,0,0,3.39,1.12,6,6,0,0,0,1.41-.16,3.36,3.36,0,0,0,.63.06h2.21a3.47,3.47,0,0,0,2.49-1.07c.11.09.21.19.33.28a5.06,5.06,0,0,0,2.94.89,6.24,6.24,0,0,0,2.13-.37,5.52,5.52,0,0,0,2,.37,5.9,5.9,0,0,0,1.44-.17,3.11,3.11,0,0,0,.69.07h2.37a3.46,3.46,0,0,0,2.61-1.21,6.47,6.47,0,0,0,4.14,1.39,6.88,6.88,0,0,0,3.18-.75,5.72,5.72,0,0,0,2.68.67,6,6,0,0,0,1.41-.16,3.39,3.39,0,0,0,.64.06h2.2l.23,0,.23,0h1.13l.34,0a7.34,7.34,0,0,0,1.34.12,6.57,6.57,0,0,0,2.84-.61,5.67,5.67,0,0,0,2.55.61,6.06,6.06,0,0,0,1.42-.16,3.21,3.21,0,0,0,.63.06h2.21a3.07,3.07,0,0,0,.53-.06,3.19,3.19,0,0,0,.54.06h1.63a3.45,3.45,0,0,0,3.45-3.45v-1.64a3.34,3.34,0,0,0-.41-1.6l.25-2.91a2.71,2.71,0,0,0,0-.29v-2.81a3.45,3.45,0,0,0-3.45-3.45h-1.34a4.36,4.36,0,0,0-.52.05,19.07,19.07,0,0,0,2.28-1.93A19.94,19.94,0,0,0,145.77,111.87Z"/><path class="cls-3" d="M145.77,111.87c-.13-7.39-3.43-13.51-8.94-17.16.42-.43.84-.91,1.26-1.43a8.81,8.81,0,0,0,4.34-2,31.27,31.27,0,0,0,2.83-2.7,4,4,0,0,0,1.13-4.16,3.8,3.8,0,0,0-3-2.49,12.88,12.88,0,0,0,0-3.51,10.1,10.1,0,0,0-2.16-5.2,6.57,6.57,0,0,0-5.12-2.4,7.56,7.56,0,0,0-5.4,2.49l-.09.1a5.23,5.23,0,0,0-2.07-.12,8.34,8.34,0,0,0-4.33,2.13c.15-.53.31-1.08.48-1.63h.08a7.64,7.64,0,0,0,4.53-1.86,4.83,4.83,0,0,0,.4-.38A10.44,10.44,0,0,0,132.21,64a12.7,12.7,0,0,0-2.14-7,6.53,6.53,0,0,0-4.33-2.8,7.83,7.83,0,0,0-4.07.49,10.39,10.39,0,0,0-3.18,2.06,24.54,24.54,0,0,0-1.91,2l-.07.09-.29.37a11.23,11.23,0,0,0-1-1.69,6.49,6.49,0,0,0-4.33-2.8,7.83,7.83,0,0,0-4.07.49,10,10,0,0,0-3.18,2.06,24.6,24.6,0,0,0-1.91,2l-.07.09a23.08,23.08,0,0,0-2,2.92c-.15.27-.31.54-.46.82A13.42,13.42,0,0,0,96.86,63a10.2,10.2,0,0,0-3,.61,5.94,5.94,0,0,0-3.24,2.94,4.57,4.57,0,0,0-.34,3.35A4.44,4.44,0,0,0,91,71.37a7.92,7.92,0,0,0-4.54,2.43.94.94,0,0,1-.1.1,5.59,5.59,0,0,0-1-.15c.08-.73.15-1.44.17-2.15a25.72,25.72,0,0,0-1.41-9.84C81.19,51.5,73.68,47.08,66.21,44.59a5.43,5.43,0,0,0,3.62-1.44,19,19,0,0,0,1.33-1.41l7.72.81a5.35,5.35,0,0,0,1.5-.06,3,3,0,0,0,.43-.1l.46-.14.45-.2c.14-.07.29-.14.4-.21a4,4,0,0,0,.38-.26,4.68,4.68,0,0,0,.37-.29,3.06,3.06,0,0,0,.31-.3,4.48,4.48,0,0,0,.36-.4c.09-.11.17-.24.23-.32a5.06,5.06,0,0,0,.29-.48c.07-.13.12-.26.18-.39s.12-.3.18-.46a3.81,3.81,0,0,0,.09-.38c0-.15.07-.3.1-.45a1.23,1.23,0,0,0,0-.19s0-.08,0-.11v-.06c.55-5-1.93-9.43-7-12.44A25.41,25.41,0,0,0,72.4,23a15.4,15.4,0,0,0-1.35-1.67,10.24,10.24,0,0,0,1.77-3.05,10.33,10.33,0,0,0-1.35-9.24c-2.6-4-5.73-4.87-7.89-4.87h-.25a8.75,8.75,0,0,0-3.74,1,10.08,10.08,0,0,0-1.32-1,8.82,8.82,0,0,0-7.1-.83,11.42,11.42,0,0,0-6.59,5h0A9.63,9.63,0,0,0,41.19,9c-1.77.67-4.89,2.52-5.86,7.47A9.51,9.51,0,0,0,37,24.22a9.67,9.67,0,0,0,.85,1,17.13,17.13,0,0,0-2.62,12.89,14.78,14.78,0,0,0,7.68,10.6A31.11,31.11,0,0,0,38,52.76a19.82,19.82,0,0,0-2.62,3.3,9.65,9.65,0,0,0-1.67,4.4c0,.1,0,.21,0,.31A4.08,4.08,0,0,0,35.11,64a29.89,29.89,0,0,0-1.74,4.68,20.64,20.64,0,0,0-.8,7.69c0,.11,0,.22,0,.34a33.43,33.43,0,0,0-10.24-1.64C10,75.06,5.57,83.25,5.57,90.91v1A3.47,3.47,0,0,0,3,95.25v10.06a3.46,3.46,0,0,0,2.56,3.33V115a3.45,3.45,0,0,0-2.5,3.31v10.13a3.46,3.46,0,0,0,3.45,3.45H17a6.59,6.59,0,0,0-1.38,1A6.46,6.46,0,0,0,13.77,136a3.32,3.32,0,0,0-.95.17,3.23,3.23,0,0,0-1-.18H10.15a3.23,3.23,0,0,0-1,.18,3.24,3.24,0,0,0-1-.18H6.45A3.45,3.45,0,0,0,3,139.44v1.64a3.45,3.45,0,0,0,3.45,3.45H8.08a3.24,3.24,0,0,0,1-.18,3.23,3.23,0,0,0,1,.18h1.64a3.23,3.23,0,0,0,1-.18,3.24,3.24,0,0,0,1,.18h1.63a3.42,3.42,0,0,0,1.84-.54,6.54,6.54,0,0,0,2.81.64,6.75,6.75,0,0,0,1.57-.18,3.55,3.55,0,0,0,.73.08h2.42a3.45,3.45,0,0,0,1.29-.25,7.57,7.57,0,0,0,2.54.43A7.73,7.73,0,0,0,32,144a6.55,6.55,0,0,0,1-.61,3.41,3.41,0,0,0,2.56,1.16H39a3.49,3.49,0,0,0,1.07-.19,5.76,5.76,0,0,0,1.77.29,6,6,0,0,0,1.41-.16,3.36,3.36,0,0,0,.63.06H46a3.51,3.51,0,0,0,1.7-.46,3.44,3.44,0,0,0,1.69.46h2.38a3.67,3.67,0,0,0,.75-.08,6.83,6.83,0,0,0,1.58.18,6.6,6.6,0,0,0,2.33-.41,3.55,3.55,0,0,0,1.42.31h4a3.46,3.46,0,0,0,1.6-.41,5.64,5.64,0,0,0,2.35.51,6,6,0,0,0,1.41-.16,3.36,3.36,0,0,0,.63.06h2.21l.23,0,.23,0h1.13l.34,0a7.26,7.26,0,0,0,1.34.12,6.57,6.57,0,0,0,2.84-.61,5.67,5.67,0,0,0,2.55.61,6.06,6.06,0,0,0,1.42-.16,3.21,3.21,0,0,0,.63.06H83a3.42,3.42,0,0,0,2.44-1,5.7,5.7,0,0,0,3.39,1.12,6,6,0,0,0,1.41-.16,3.36,3.36,0,0,0,.63.06h2.21a3.47,3.47,0,0,0,2.49-1.07c.11.09.21.19.33.28a5.06,5.06,0,0,0,2.94.89,6.24,6.24,0,0,0,2.13-.37,5.52,5.52,0,0,0,2,.37,5.9,5.9,0,0,0,1.44-.17,3.11,3.11,0,0,0,.69.07h2.37a3.46,3.46,0,0,0,2.61-1.21,6.47,6.47,0,0,0,4.14,1.39,6.88,6.88,0,0,0,3.18-.75,5.72,5.72,0,0,0,2.68.67,6,6,0,0,0,1.41-.16,3.39,3.39,0,0,0,.64.06h2.2l.23,0,.23,0h1.13l.34,0a7.34,7.34,0,0,0,1.34.12,6.57,6.57,0,0,0,2.84-.61,5.67,5.67,0,0,0,2.55.61,6.06,6.06,0,0,0,1.42-.16,3.21,3.21,0,0,0,.63.06h2.21a3.07,3.07,0,0,0,.53-.06,3.19,3.19,0,0,0,.54.06h1.63a3.45,3.45,0,0,0,3.45-3.45v-1.64a3.34,3.34,0,0,0-.41-1.6l.25-2.91a2.71,2.71,0,0,0,0-.29v-2.81a3.45,3.45,0,0,0-3.45-3.45h-1.34a4.36,4.36,0,0,0-.52.05,19.07,19.07,0,0,0,2.28-1.93A19.94,19.94,0,0,0,145.77,111.87Z"/><path class="cls-4" d="M8.06,126.86v-7h2.5V103.78H8V96.87h2.56V91c0-4,1.52-10.82,11.75-10.82a29,29,0,0,1,8.34,1.26l-3.2,6.11a9.45,9.45,0,0,0-3.14-.46c-1.73,0-2.6,1.31-2.6,3.91v5.9h5.68v6.91H21.71v16.11h3.74v7Z"/><path class="cls-5" d="M22.31,80.75a30.41,30.41,0,0,1,7.48,1l-2.63,5a10.76,10.76,0,0,0-2.85-.34c-1.46,0-3.2.78-3.2,4.51v6.5h5.68v5.71H21.11v17.31h3.74v5.77H8.66v-5.77h2.5V103.18H8.6V97.47h2.56V91c0-4.66,1.93-10.22,11.15-10.22m0-1.2C11.08,79.55,10,87.41,10,91v5.3H7.4v8.11H10v14.91H7.46v8.17H26.05v-8.17H22.31V104.38H28V96.27H22.31V91c0-2.25.62-3.31,2-3.31a8.19,8.19,0,0,1,3.43.62l3.74-7.17c-1.62-.81-5.93-1.56-9.17-1.56Z"/><path class="cls-4" d="M48,127.67a17.74,17.74,0,0,1-12.64-4.85,15,15,0,0,1-4.16-11.07c.06-10.26,8.34-15.63,16.49-15.63,10,.13,16.57,6.36,16.74,15.88a15,15,0,0,1-4.11,11A17.07,17.07,0,0,1,48,127.67ZM47.7,103c-2.8,0-4.9,3.77-4.9,8.77,0,5.35,2.14,9.09,5.21,9.09,2.9,0,4.84-3.58,4.84-8.9s-2-8.89-5.14-9Z"/><path class="cls-5" d="M47.69,96.72c9.8.13,16,6,16.15,15.28a14.41,14.41,0,0,1-3.94,10.58A16.47,16.47,0,0,1,48,127.07a17.16,17.16,0,0,1-12.22-4.67,14.53,14.53,0,0,1-4-10.65c.06-9.87,8-15,15.88-15M48,121.49c3.31,0,5.44-3.73,5.44-9.5s-2.24-9.49-5.75-9.56c-3.14,0-5.5,4-5.5,9.37,0,5.7,2.39,9.69,5.81,9.69m-.31-26c-8.61,0-17,5.8-17.09,16.22-.13,11,8.48,16.53,17.4,16.53,9.48,0,17.16-5.92,17-16.28S57.56,95.64,47.7,95.52ZM48,120.29c-2.62,0-4.61-3.37-4.61-8.49,0-4.55,1.87-8.17,4.3-8.17,2.93.06,4.55,3.68,4.55,8.36s-1.56,8.3-4.24,8.3Z"/><path class="cls-4" d="M90,126.86V110.14c0-1.59,0-3.77-1.3-5.09a3.79,3.79,0,0,0-2.8-1c-2.92,0-4.53,2.27-4.53,6.4v9.46H85.9v7h-18v-7h2.62V103.78H67.89V96.87H80.16l1.68,4.53.66-.91c2.27-3.15,5.11-4.74,8.43-4.74,7.3,0,10.69,4.17,10.69,13.12v11h2.94v7Z"/><path class="cls-5" d="M90.93,96.35c7,0,10.09,3.86,10.09,12.52v11.62H104v5.77H90.63V110.14c0-1.6,0-4-1.47-5.51a4.37,4.37,0,0,0-3.23-1.2c-3.26,0-5.13,2.55-5.13,7v10.06H85.3v5.77H68.49v-5.77h2.62V103.18H68.49V97.47H79.74l1.15,3.08.78,2.11L83,100.84c2.19-3,4.79-4.49,8-4.49m0-1.2c-3.93,0-6.8,2-8.92,5l-1.43-3.87H67.29v8.11h2.62v14.91H67.29v8.17H86.5v-8.17H82v-8.86c0-2.68.75-5.8,3.93-5.8,3.68,0,3.49,3.68,3.49,5.8v17h15.73v-8.17h-2.94V108.87c0-6.55-1.62-13.72-11.29-13.72Z"/><path class="cls-4" d="M124.18,127.67a17.77,17.77,0,0,1-12.64-4.85,15.08,15.08,0,0,1-4.16-11.07c.06-10.26,8.34-15.63,16.49-15.63,10,.13,16.57,6.36,16.75,15.88a15,15,0,0,1-4.12,11A17.07,17.07,0,0,1,124.18,127.67ZM123.87,103c-2.79,0-4.9,3.77-4.9,8.77,0,5.35,2.14,9.09,5.21,9.09,2.9,0,4.85-3.58,4.85-8.9s-2-8.89-5.15-9Z"/><path class="cls-5" d="M123.86,96.72c9.8.13,16,6,16.15,15.28a14.37,14.37,0,0,1-3.94,10.58,16.43,16.43,0,0,1-11.89,4.49A17.12,17.12,0,0,1,112,122.4a14.49,14.49,0,0,1-4-10.65c.06-9.87,8-15,15.88-15m.32,24.77c3.31,0,5.45-3.73,5.45-9.5s-2.25-9.49-5.76-9.56c-3.14,0-5.5,4-5.5,9.37,0,5.7,2.39,9.69,5.81,9.69m-.31-26c-8.61,0-17,5.8-17.09,16.22-.13,11,8.48,16.53,17.4,16.53,9.49,0,17.16-5.92,17-16.28s-7.48-16.35-17.34-16.47Zm.31,24.77c-2.62,0-4.61-3.37-4.61-8.49,0-4.55,1.87-8.17,4.3-8.17,2.93.06,4.56,3.68,4.56,8.36s-1.56,8.3-4.25,8.3Z"/><path class="cls-6" d="M26.38,127.78H7.14V119H9.63V104.7H7.07V95.94H9.63V91c0-4.39,1.65-11.74,12.68-11.74,3.26,0,7.62.74,9.31,1.59l.3.15-4,7.73-.28-.12a7.93,7.93,0,0,0-3.29-.6c-.78,0-1.68.34-1.68,3v5h5.68v8.76H22.63V119h3.75Zm-18.59-.64H25.73v-7.53H22V104.05h5.68V96.59H22V91c0-.9,0-3.63,2.33-3.63a8.88,8.88,0,0,1,3.28.53L31,81.26a28.36,28.36,0,0,0-8.72-1.39c-10.47,0-12,6.95-12,11.1v5.62H7.72v7.46h2.56v15.56H7.79Z"/><path class="cls-6" d="M48,128.6a18.67,18.67,0,0,1-13.3-5.13,16,16,0,0,1-4.43-11.73c0-8.22,6-16.54,17.42-16.54,10.55.13,17.49,6.72,17.67,16.78A15.89,15.89,0,0,1,61,123.65,18,18,0,0,1,48,128.6ZM47.7,95.84c-11,0-16.72,8-16.77,15.9A15.4,15.4,0,0,0,35.17,123,18.05,18.05,0,0,0,48,128a17.3,17.3,0,0,0,12.51-4.76,15.25,15.25,0,0,0,4.2-11.2C64.55,102.31,57.86,96,47.7,95.84ZM48,120.61c-2.91,0-4.94-3.62-4.94-8.81,0-4.84,2-8.49,4.63-8.49h0c3,.06,4.87,3.47,4.87,8.68S50.74,120.61,48,120.61ZM47.7,104c-2.23,0-4,3.45-4,7.85,0,4.73,1.8,8.16,4.29,8.16s3.92-3.2,3.92-8S50.27,104,47.7,104Z"/><path class="cls-6" d="M105.48,127.78H89.11V110.13c0-1.43,0-3.38-1-4.42a2.88,2.88,0,0,0-2.15-.76c-3,0-3.6,3-3.6,5.48V119h4.49v8.82H67V119h2.62V104.7H67V95.94H80.8l1.31,3.53a10.86,10.86,0,0,1,8.82-4.65c7.82,0,11.62,4.6,11.62,14.05V119h2.93Zm-15.72-.64h15.07v-7.53H101.9V108.87c0-5.75-1.14-13.4-11-13.4-3.41,0-6.33,1.63-8.66,4.86l-.35.49-1.57-4.23H67.61v7.46h2.62v15.56H67.61v7.53H86.18v-7.53H81.69v-9.18c0-4,1.51-6.13,4.25-6.13a3.53,3.53,0,0,1,2.61,1c1.22,1.23,1.22,3.34,1.21,4.89v17Z"/><path class="cls-6" d="M124.18,128.6a18.67,18.67,0,0,1-13.3-5.13,16,16,0,0,1-4.43-11.73c0-8.22,6-16.54,17.42-16.54,10.56.13,17.49,6.72,17.67,16.78a15.89,15.89,0,0,1-4.39,11.67A17.94,17.94,0,0,1,124.18,128.6Zm-.31-32.76c-11,0-16.72,8-16.77,15.9A15.4,15.4,0,0,0,111.34,123,18.05,18.05,0,0,0,124.18,128a17.3,17.3,0,0,0,12.51-4.76,15.25,15.25,0,0,0,4.2-11.2C140.72,102.31,134,96,123.87,95.84Zm.31,24.77c-2.91,0-4.94-3.62-4.94-8.81,0-4.76,2-8.49,4.63-8.49h0c3,.06,4.87,3.47,4.87,8.68S126.91,120.61,124.18,120.61ZM123.87,104c-2.23,0-4,3.45-4,7.85,0,4.73,1.81,8.16,4.29,8.16s3.92-3.2,3.92-8S126.44,104,123.87,104Z"/><path class="cls-7" d="M68.78,27s11.37,2.83,10.57,10.43L69,37Z"/><path class="cls-8" d="M76,30.49a6.29,6.29,0,0,1-1.33,3,8.1,8.1,0,0,1-4,2.52,4.45,4.45,0,0,1-1.61.2L69,37l10.36.47C79.67,34.4,78,32.13,76,30.49Z"/><path class="cls-4" d="M62.17,21.16s8.62-5,4.12-10.13-7.15,2.44-7.91,2.51C56.89,8,49.29,6,47.83,14.84c-2-.33-4.13-2.57-6.54,1.22-4.21,6.61,5.22,7.28,5.22,7.28Z"/><path class="cls-9" d="M67,12c-.25,2.27-2.67,4.07-4.87,4.49a11.28,11.28,0,0,1-2.9-.1c-.89-.06-1.83.09-2.71,0a6.41,6.41,0,0,1-3.88-1.71A5.06,5.06,0,0,1,51.79,9c-1.75.51-3.32,2.25-3.93,5.7a2.91,2.91,0,0,1,0,2.53c-1.39,3-5,1.66-7.13-.22-2.76,5.73,5.74,6.34,5.74,6.34l15.66-2.18S69.71,16.77,67,12Z"/><path class="cls-6" d="M60.44,33.94a3.19,3.19,0,1,1,3.25-3.18A3.22,3.22,0,0,1,60.44,33.94Zm0-4.95a1.77,1.77,0,1,0,1.82,1.77A1.8,1.8,0,0,0,60.44,29Z"/><path class="cls-6" d="M79.35,39.22h-.24a1.78,1.78,0,0,1-1.52-2c.76-5.58-8.19-7.63-8.28-7.65a1.78,1.78,0,0,1,.77-3.47,21.72,21.72,0,0,1,5.71,2.3c4,2.35,5.82,5.56,5.32,9.29A1.78,1.78,0,0,1,79.35,39.22Z"/><path class="cls-6" d="M79.35,39.22h-.18L68.29,38.07a1.77,1.77,0,1,1,.36-3.52l10.88,1.13a1.77,1.77,0,0,1-.18,3.54Z"/><path class="cls-6" d="M45.26,25h-.14a8.15,8.15,0,0,1-5.48-2.75,6,6,0,0,1-1-5c.61-3.13,2.34-4.39,3.68-4.9a7,7,0,0,1,4.23-.09,8.15,8.15,0,0,1,5.51-5.45,5.34,5.34,0,0,1,4.35.48A7.15,7.15,0,0,1,58.91,10a6.78,6.78,0,0,1,4.44-2.23c1.34,0,3.35.51,5.14,3.3a6.79,6.79,0,0,1,1,6.19c-1.39,3.82-6.25,5.43-6.8,5.61a1.78,1.78,0,0,1-1.06-3.39c1-.33,3.86-1.58,4.52-3.44A3.4,3.4,0,0,0,65.51,13c-.49-.76-1.24-1.67-2-1.67h0c-1.2,0-2.81,1.87-3.53,3.11l-2.33,4-.94-4.54c-.15-.7-.85-2.85-2-3.56a1.77,1.77,0,0,0-1.51-.12c-3.19.94-3.45,4.43-3.46,4.58l-.22,3.32-2.63-2a4.51,4.51,0,0,0-3.27-.38c-.25.11-1,.44-1.37,2.23a2.56,2.56,0,0,0,.32,2.14,4.82,4.82,0,0,0,2.93,1.37A1.77,1.77,0,0,1,45.26,25Z"/><path class="cls-6" d="M79.63,69.38a2,2,0,0,1-1.95-1.74c-1.6-13.32-11.75-15.7-21.56-18C48.19,47.77,40,45.85,38.52,37.57a13.74,13.74,0,0,1,2.85-11.38c4.11-5.06,11-6.94,13.57-7C67.49,18.75,71.45,26.6,71.8,31.3c.36,4.95-4.19,9.22-4.39,9.4a2,2,0,1,1-2.68-2.88h0c.93-.88,3.32-3.7,3.13-6.23-.06-.91-1-8.86-12.8-8.48a17.11,17.11,0,0,0-10.63,5.57,9.8,9.8,0,0,0-2,8.2c1,5.45,6.19,6.94,14.62,8.91,10.09,2.37,22.65,5.32,24.57,21.39a2,2,0,0,1-1.72,2.19Z"/><path class="cls-10" d="M80,61.13A23.79,23.79,0,0,0,66.37,49,25.36,25.36,0,0,0,58,47.44a22,22,0,0,0-9.77,2.16,27.76,27.76,0,0,0-7.85,5.68A16.78,16.78,0,0,0,38.23,58a6.48,6.48,0,0,0-1.13,2.84c0,.45.15.68.45.68s.46-.19.68-.57c.38-.6.87-1.3,1.48-2.1a13.87,13.87,0,0,1,2.5-2.44,36,36,0,0,1,6-4,17.67,17.67,0,0,1,8.63-2,22.14,22.14,0,0,1,7.85,1.42,21.56,21.56,0,0,1,6.65,4,19.75,19.75,0,0,1,4.6,6A16,16,0,0,1,77.68,69a23,23,0,0,1-1.08,6.88,23.9,23.9,0,0,1-3.07,6.37,20.07,20.07,0,0,1-4.83,4.94A16,16,0,0,1,62.33,90a22.27,22.27,0,0,1-7,.23,13.16,13.16,0,0,1-6.36-2.62c.38-1.13,1-2.92,1.93-5.34s1.84-5,2.79-7.67,1.78-5.27,2.5-7.73a22,22,0,0,0,1.08-5.4,6.24,6.24,0,0,0-1.82-4.49,5.84,5.84,0,0,0-4.32-1.88,10.39,10.39,0,0,0-6.37,2.22,20.27,20.27,0,0,0-5,5.46,25.9,25.9,0,0,0-3.07,6.93A17.08,17.08,0,0,0,36,76.2a17.16,17.16,0,0,0,5.23,12.27c-.23.61-.66,1.8-1.31,3.58a74.9,74.9,0,0,0-2.54,7.36,23.55,23.55,0,0,0-.56,5.34c0,1.59.62,2.54,1.76,2.84a3,3,0,0,0,2.44-.11,3.12,3.12,0,0,0,1.65-1.82c.61-1.74,1.19-3.54,1.76-5.4s2.1-5.39,2.71-7.13a20.74,20.74,0,0,0,9.09,2.62,26.94,26.94,0,0,0,9.44-1.25,20.6,20.6,0,0,0,6.87-3.76,24.52,24.52,0,0,0,5.06-5.68,28.44,28.44,0,0,0,3.19-6.71A25.38,25.38,0,0,0,82,71.53,21.43,21.43,0,0,0,80,61.13ZM43.78,82.85a10.08,10.08,0,0,1-1.28-3,23.43,23.43,0,0,1-.4-2.79,24.31,24.31,0,0,1,.51-4.88,18.23,18.23,0,0,1,1.65-4.72A15.29,15.29,0,0,1,47,63.63a9.36,9.36,0,0,1,3.83-2.38l.67-.19A98.21,98.21,0,0,1,47.72,72C46.39,75.43,45.22,79.36,43.78,82.85Z"/><path class="cls-10" d="M98.31,85.86a1.18,1.18,0,0,0-1.2.34l-1.93,1.93a3.86,3.86,0,0,1-2.5,1.14,8.24,8.24,0,0,0,1.31-2c.34-.76.66-1.55,1-2.39a11.63,11.63,0,0,0,.69-5.34A6.89,6.89,0,0,0,94.27,76a3.18,3.18,0,0,0-2.5-1.19,4.23,4.23,0,0,0-3,1.48,6.78,6.78,0,0,0-1.6,3,13.31,13.31,0,0,0-.51,4,14.31,14.31,0,0,0,.63,3.87A4.84,4.84,0,0,0,89,89.72c-.45.38-.87.72-1.25,1a2.25,2.25,0,0,1-1.47.46c-.84,0-1.37-.68-1.6-2s.19-3.52,1.25-6.48q1.14-3.06.57-4.32a1.65,1.65,0,0,0-1.87-1.07,5.6,5.6,0,0,0-2.9,1.64,10.21,10.21,0,0,0-2.5,3.75,16,16,0,0,0-.91,4.1,14.73,14.73,0,0,0,.17,4.32,6.79,6.79,0,0,0,1.65,3.41,4.66,4.66,0,0,0,3.63,1.36,8.3,8.3,0,0,0,3.7-1.08,13.36,13.36,0,0,0,4.37-4.26,5.86,5.86,0,0,0,3.93-1.31,27.88,27.88,0,0,0,2.55-2.44C98.89,86.24,98.88,85.93,98.31,85.86Zm-6.14-2.22a16.09,16.09,0,0,1-2.1,4.72A5.27,5.27,0,0,1,89,85.23c0-1.17,0-2.29.05-3.35a3.54,3.54,0,0,1,.29-1.19A7,7,0,0,1,90,79.43a1.14,1.14,0,0,1,.85-.56c.35,0,.71.2,1.08.74A5.25,5.25,0,0,1,92.17,83.64Z"/><path class="cls-10" d="M104.84,79.61a90.88,90.88,0,0,1,2.5-8.87,9.87,9.87,0,0,0,2.39.17,4.3,4.3,0,0,0,2.5-1.08,7,7,0,0,0,1.59-5.12,9.31,9.31,0,0,0-1.47-5.11,3.17,3.17,0,0,0-2-1.42,4.25,4.25,0,0,0-2.27.28,6.83,6.83,0,0,0-2.11,1.37,23.21,23.21,0,0,0-1.65,1.7,21.44,21.44,0,0,0-1.7,2.5,28.16,28.16,0,0,0-1.48,3c-.6-.15-1.27-.29-2-.4a10.44,10.44,0,0,0-2.16-.11,6.64,6.64,0,0,0-2,.39,2.48,2.48,0,0,0-1.36,1.25,1.16,1.16,0,0,0-.11.86.77.77,0,0,0,.34.51c.07.07.13,0,.17-.17a1.34,1.34,0,0,1,.4-.63,2.68,2.68,0,0,1,1-.57,6.46,6.46,0,0,1,1.93-.22,4.82,4.82,0,0,1,1.42.22c.49.16,1,.31,1.65.46-.61,1.51-1.25,3.45-1.93,5.8a66.38,66.38,0,0,0-1.65,7.16,51.82,51.82,0,0,0-.74,7A12,12,0,0,0,97,94.15a3.1,3.1,0,0,0,.91.8,5.34,5.34,0,0,0,1.53.57,12.42,12.42,0,0,0,2.68.23,5.73,5.73,0,0,0,3.69-1.6c1.25-1.06,2.75-3.25,4.49-6.59.08-.23.15-.49.23-.79.15-.53,0-.8-.34-.8a.84.84,0,0,0-.8.68c-.15.31-.42.78-.8,1.42A17.52,17.52,0,0,1,107.34,90c-.45.61-.91,1.15-1.36,1.65a2.7,2.7,0,0,1-1.14.85c-.6.15-1-.3-1.19-1.36a17.39,17.39,0,0,1,0-4.49A60.9,60.9,0,0,1,104.84,79.61Zm4.1-13.76a10.82,10.82,0,0,1,.9-2.16c.38-.38.72-.3,1,.23.07.45.13,1,.17,1.59a4.58,4.58,0,0,1-.17,1.65,2.18,2.18,0,0,1-.91,1.19,2.58,2.58,0,0,1-1.93.23C108.4,67.52,108.71,66.61,108.94,65.85Z"/><path class="cls-10" d="M119.65,79.12a88.37,88.37,0,0,1,2.51-8.87,9.75,9.75,0,0,0,2.38.17,4.27,4.27,0,0,0,2.5-1.08,7,7,0,0,0,1.59-5.11,9.26,9.26,0,0,0-1.47-5.12,3.17,3.17,0,0,0-2-1.42,4.36,4.36,0,0,0-2.27.28,6.83,6.83,0,0,0-2.11,1.37,22.84,22.84,0,0,0-1.64,1.7,21.1,21.1,0,0,0-1.71,2.5,28.16,28.16,0,0,0-1.48,3c-.6-.15-1.27-.28-2-.4s-1.78-.73-2.16-.11c-.9,1.5,2.14,2.21.4,1.42-.41-.19.93.08,1.42.23s1.05.3,1.65.45c-.6,1.52-1.25,3.45-1.93,5.8a66.38,66.38,0,0,0-1.65,7.16,51.82,51.82,0,0,0-.74,7,12.21,12.21,0,0,0,.91,5.57,3.07,3.07,0,0,0,.91.79,5.3,5.3,0,0,0,1.54.57,12.25,12.25,0,0,0,2.67.23,5.76,5.76,0,0,0,3.69-1.59q1.88-1.59,4.49-6.6c.08-.22.15-.49.23-.79.15-.53,0-.8-.34-.8a.84.84,0,0,0-.8.68c-.15.31-.42.78-.79,1.43a21,21,0,0,1-1.25,1.87,20,20,0,0,1-1.37,1.65,2.62,2.62,0,0,1-1.14.85c-.6.15-1-.3-1.19-1.36a17.39,17.39,0,0,1,0-4.49A61.63,61.63,0,0,1,119.65,79.12Zm4.1-13.76a10.76,10.76,0,0,1,.91-2.16c.38-.38.72-.3,1,.23.07.46.13,1,.17,1.59a4.58,4.58,0,0,1-.17,1.65,2.18,2.18,0,0,1-.91,1.19,2.58,2.58,0,0,1-1.93.23C123.22,67,123.52,66.12,123.75,65.36Z"/><path class="cls-10" d="M142.56,85.37a1.17,1.17,0,0,0-1.19.34l-1.94,1.93a3.86,3.86,0,0,1-2.5,1.14,8.24,8.24,0,0,0,1.31-2c.34-.75.66-1.55,1-2.38a11.67,11.67,0,0,0,.68-5.35,6.73,6.73,0,0,0-1.37-3.46,3.16,3.16,0,0,0-2.5-1.2,4.27,4.27,0,0,0-3,1.48,6.86,6.86,0,0,0-1.59,3,12.9,12.9,0,0,0-.52,4,14.25,14.25,0,0,0,.63,3.87,4.8,4.8,0,0,0,1.71,2.61l-1.26,1a2.28,2.28,0,0,1-1.47.45q-1.26,0-1.59-2t1.25-6.48q1.13-3.07.56-4.32a1.64,1.64,0,0,0-1.87-1.08,5.56,5.56,0,0,0-2.9,1.65,10.16,10.16,0,0,0-2.5,3.75,15.86,15.86,0,0,0-.91,4.09,15.08,15.08,0,0,0,.17,4.32A7,7,0,0,0,124.43,94a4.67,4.67,0,0,0,3.64,1.36,8.3,8.3,0,0,0,3.69-1.08A13.48,13.48,0,0,0,136.14,90a5.84,5.84,0,0,0,3.92-1.31,28.06,28.06,0,0,0,2.56-2.44C143.15,85.75,143.13,85.45,142.56,85.37Zm-6.14-2.22a16.09,16.09,0,0,1-2.1,4.72,5.4,5.4,0,0,1-1.08-3.13,30.69,30.69,0,0,1,.06-3.35,3.48,3.48,0,0,1,.28-1.19A6.61,6.61,0,0,1,134.2,79a1.2,1.2,0,0,1,.86-.57c.34,0,.7.21,1.08.74A5.3,5.3,0,0,1,136.42,83.15Z"/><path class="cls-6" d="M13.35,141.61V140H15v1.63Z"/><path class="cls-6" d="M24.36,140.49v1.12H21.94v-.94a3,3,0,0,1-2.3,1.05,3.2,3.2,0,0,1-2.21-.86,3.12,3.12,0,0,1-.95-2.44,3.26,3.26,0,0,1,1-2.5,3.13,3.13,0,0,1,2.2-.92,3,3,0,0,1,2.28,1v-2.55H20.7v-1.12h2.5v8.12Zm-6.53-2.1a2.18,2.18,0,0,0,.6,1.64,2.05,2.05,0,0,0,2.88,0,2.18,2.18,0,0,0,.63-1.66,2,2,0,0,0-.64-1.62,2.19,2.19,0,0,0-1.44-.54,1.88,1.88,0,0,0-1.45.64A2.25,2.25,0,0,0,17.83,138.39Z"/><path class="cls-6" d="M31.42,138.72H26a2.35,2.35,0,0,0,.7,1.44,2.09,2.09,0,0,0,1.5.55,2.44,2.44,0,0,0,2.09-1.06l1.12.49A3.41,3.41,0,0,1,30,141.39a4.28,4.28,0,0,1-1.82.41,3.69,3.69,0,0,1-2.52-.92,3.13,3.13,0,0,1-1.05-2.48,3.19,3.19,0,0,1,1-2.44A3.32,3.32,0,0,1,28,135a3.45,3.45,0,0,1,2.35.93A3.64,3.64,0,0,1,31.42,138.72Zm-1.31-.92a2.28,2.28,0,0,0-.7-1.23A2,2,0,0,0,28,136a1.85,1.85,0,0,0-1.3.5,2.12,2.12,0,0,0-.66,1.28Z"/><path class="cls-6" d="M36.2,140.49v-7H35.05v-1.12h2.41v8.12h1v1.12H35.05v-1.12Z"/><path class="cls-6" d="M45.54,140.49v1.12H43.33v-.78a2.9,2.9,0,0,1-2,.89,2.27,2.27,0,0,1-1.53-.57,2,2,0,0,1,0-3,2.4,2.4,0,0,1,1.65-.59,3.18,3.18,0,0,1,1.75.54v-.64a2.49,2.49,0,0,0-.09-.76,1,1,0,0,0-.44-.47,1.56,1.56,0,0,0-.89-.22,1.49,1.49,0,0,0-1.38.76l-1.21-.32A2.9,2.9,0,0,1,42,135a3.56,3.56,0,0,1,1.25.2,1.74,1.74,0,0,1,.79.5,1.61,1.61,0,0,1,.35.67,5.17,5.17,0,0,1,.09,1.14v3Zm-2.34-1.27a2.68,2.68,0,0,0-1.65-.64,1.26,1.26,0,0,0-.88.31,1,1,0,0,0-.35.79,1,1,0,0,0,.31.76,1.14,1.14,0,0,0,.84.3A2.46,2.46,0,0,0,43.2,140Z"/><path class="cls-6" d="M48.93,141.61v-1.12h1.14v-7H48.93v-1.12H51.3v3.72a3.12,3.12,0,0,1,4.57-.18,3.3,3.3,0,0,1,.9,2.41,3.51,3.51,0,0,1-.88,2.42,2.92,2.92,0,0,1-2.26,1,3.05,3.05,0,0,1-1.41-.33,2.55,2.55,0,0,1-.92-.74v1Zm2.41-3.2A2.09,2.09,0,0,0,52,140a2,2,0,0,0,1.42.59,2,2,0,0,0,1.45-.62,2.3,2.3,0,0,0,.62-1.68,2,2,0,0,0-2-2.14,2,2,0,0,0-1.43.58A2.18,2.18,0,0,0,51.34,138.41Z"/><path class="cls-6" d="M58.68,140.49V136.3H57.39v-1.12h2.3v1.45a2.58,2.58,0,0,1,.6-.94,1.8,1.8,0,0,1,.8-.49,4.34,4.34,0,0,1,1.15-.12h.33v1.28h-.25a4.05,4.05,0,0,0-1.44.19,1.27,1.27,0,0,0-.7.7,4.81,4.81,0,0,0-.23,1.82v1.42h1.4v1.12h-4v-1.12Z"/><path class="cls-6" d="M69.55,140.49v1.12H67.34v-.78a2.9,2.9,0,0,1-2,.89,2.27,2.27,0,0,1-1.53-.57,1.86,1.86,0,0,1-.64-1.46,1.89,1.89,0,0,1,.68-1.49,2.45,2.45,0,0,1,1.66-.59,3.18,3.18,0,0,1,1.75.54v-.64a2.49,2.49,0,0,0-.09-.76,1,1,0,0,0-.44-.47,1.56,1.56,0,0,0-.89-.22,1.49,1.49,0,0,0-1.38.76l-1.21-.32A2.9,2.9,0,0,1,66,135a3.6,3.6,0,0,1,1.25.2,1.74,1.74,0,0,1,.79.5,1.61,1.61,0,0,1,.35.67,5.17,5.17,0,0,1,.09,1.14v3Zm-2.34-1.27a2.68,2.68,0,0,0-1.65-.64,1.26,1.26,0,0,0-.88.31,1,1,0,0,0-.35.79,1,1,0,0,0,.31.76,1.14,1.14,0,0,0,.84.3,2.46,2.46,0,0,0,1.73-.77Z"/><path class="cls-6" d="M70,141.61v-2.2h1.13v.21a1.05,1.05,0,0,0,.49.74,1.75,1.75,0,0,0,1,.3,1.83,1.83,0,0,0,1-.22.65.65,0,0,0,.37-.59.59.59,0,0,0-.3-.54,4.28,4.28,0,0,0-1.2-.31,3.91,3.91,0,0,1-1.9-.73A1.66,1.66,0,0,1,70,137a1.73,1.73,0,0,1,.62-1.35,2.38,2.38,0,0,1,1.63-.54,3.14,3.14,0,0,1,1.57.37v-.27H75v2.13H73.83v-.39a1.67,1.67,0,0,0-1.49-.79,1.37,1.37,0,0,0-.82.22.65.65,0,0,0-.33.57.5.5,0,0,0,.3.5,5.87,5.87,0,0,0,1.27.29,6.87,6.87,0,0,1,1.42.34,1.77,1.77,0,0,1,.79.65,1.84,1.84,0,0,1,.32,1.06,1.7,1.7,0,0,1-.69,1.43,3.26,3.26,0,0,1-3.47.06v.36Z"/><path class="cls-6" d="M82.46,140.49v1.12H80.25v-.78a2.88,2.88,0,0,1-2,.89,2.23,2.23,0,0,1-1.53-.57,2,2,0,0,1,0-3,2.43,2.43,0,0,1,1.66-.59,3.23,3.23,0,0,1,1.75.54v-.64a2.18,2.18,0,0,0-.1-.76,1,1,0,0,0-.43-.47,1.61,1.61,0,0,0-.89-.22,1.47,1.47,0,0,0-1.38.76l-1.21-.32A2.89,2.89,0,0,1,78.9,135a3.6,3.6,0,0,1,1.25.2,1.8,1.8,0,0,1,.79.5,1.73,1.73,0,0,1,.35.67,5.17,5.17,0,0,1,.09,1.14v3Zm-2.33-1.27a2.73,2.73,0,0,0-1.66-.64,1.28,1.28,0,0,0-.88.31,1,1,0,0,0-.35.79,1.07,1.07,0,0,0,.31.76,1.17,1.17,0,0,0,.84.3,2.5,2.5,0,0,0,1.74-.77Z"/><path class="cls-6" d="M92.55,140.49v1.12H90.34v-.78a2.9,2.9,0,0,1-2,.89,2.27,2.27,0,0,1-1.53-.57,1.86,1.86,0,0,1-.64-1.46,1.89,1.89,0,0,1,.68-1.49,2.45,2.45,0,0,1,1.66-.59,3.18,3.18,0,0,1,1.75.54v-.64a2.49,2.49,0,0,0-.09-.76,1,1,0,0,0-.44-.47,1.56,1.56,0,0,0-.89-.22,1.49,1.49,0,0,0-1.38.76l-1.21-.32A2.9,2.9,0,0,1,89,135a3.6,3.6,0,0,1,1.25.2,1.74,1.74,0,0,1,.79.5,1.61,1.61,0,0,1,.35.67,5.17,5.17,0,0,1,.09,1.14v3Zm-2.34-1.27a2.68,2.68,0,0,0-1.65-.64,1.26,1.26,0,0,0-.88.31,1,1,0,0,0-.35.79,1,1,0,0,0,.31.76,1.14,1.14,0,0,0,.84.3,2.46,2.46,0,0,0,1.73-.77Z"/><path class="cls-6" d="M96,136.3v-1.12h.84v-1L98.09,133v2.15h1.19v1.12H98.09v3.13a3.09,3.09,0,0,0,.08.92q.09.18.42.18a1.87,1.87,0,0,0,.69-.13v1.15a3,3,0,0,1-1,.17,1.59,1.59,0,0,1-.94-.26,1.06,1.06,0,0,1-.45-.64,6.64,6.64,0,0,1-.09-1.33V136.3Z"/><path class="cls-6" d="M106.94,140.49v1.12h-2.37v-.73a3.57,3.57,0,0,1-2.13.84,1.84,1.84,0,0,1-1.06-.28,1.35,1.35,0,0,1-.57-.73,5.54,5.54,0,0,1-.14-1.45v-3h-.91v-1.12h2.18v3.92a6.77,6.77,0,0,0,0,1,.59.59,0,0,0,.23.4.71.71,0,0,0,.48.16,3,3,0,0,0,1.88-.83V136.3h-1.14v-1.12h2.4v5.31Z"/><path class="cls-6" d="M116.51,135.18v2.43h-1.13a1.51,1.51,0,0,0-.56-1.07,1.9,1.9,0,0,0-2.51.23,2.32,2.32,0,0,0-.53,1.58,2.66,2.66,0,0,0,.51,1.61,1.69,1.69,0,0,0,1.46.69,2,2,0,0,0,1.93-1.26l1,.49a3.06,3.06,0,0,1-3,1.92,3,3,0,0,1-2.41-1,3.67,3.67,0,0,1-.88-2.41,3.22,3.22,0,0,1,1-2.4,3.05,3.05,0,0,1,2.21-.95,2.67,2.67,0,0,1,1.8.63v-.45Z"/><path class="cls-6" d="M123.81,140.49v1.12H121.6v-.78a2.88,2.88,0,0,1-2,.89,2.23,2.23,0,0,1-1.52-.57,1.84,1.84,0,0,1-.65-1.46,1.87,1.87,0,0,1,.69-1.49,2.42,2.42,0,0,1,1.65-.59,3.18,3.18,0,0,1,1.75.54v-.64a2.49,2.49,0,0,0-.09-.76,1,1,0,0,0-.44-.47,1.56,1.56,0,0,0-.89-.22,1.49,1.49,0,0,0-1.38.76l-1.21-.32a2.9,2.9,0,0,1,2.78-1.5,3.66,3.66,0,0,1,1.26.2,1.76,1.76,0,0,1,.78.5,1.61,1.61,0,0,1,.35.67,5.17,5.17,0,0,1,.09,1.14v3Zm-2.34-1.27a2.68,2.68,0,0,0-1.65-.64,1.28,1.28,0,0,0-.88.31,1,1,0,0,0-.35.79,1,1,0,0,0,.31.76,1.14,1.14,0,0,0,.84.3,2.46,2.46,0,0,0,1.73-.77Z"/><path class="cls-6" d="M124.27,141.61v-2.2h1.13v.21a1,1,0,0,0,.48.74,1.75,1.75,0,0,0,1,.3,1.87,1.87,0,0,0,1-.22.66.66,0,0,0,.36-.59.59.59,0,0,0-.3-.54,4.08,4.08,0,0,0-1.2-.31,3.91,3.91,0,0,1-1.9-.73,1.66,1.66,0,0,1-.57-1.3,1.73,1.73,0,0,1,.62-1.35,2.38,2.38,0,0,1,1.63-.54,3.12,3.12,0,0,1,1.57.37v-.27h1.12v2.13h-1.12v-.39a1.66,1.66,0,0,0-1.49-.79,1.39,1.39,0,0,0-.82.22.64.64,0,0,0-.32.57.49.49,0,0,0,.29.5,5.87,5.87,0,0,0,1.27.29,6.87,6.87,0,0,1,1.42.34,1.77,1.77,0,0,1,.79.65,1.84,1.84,0,0,1,.32,1.06,1.7,1.7,0,0,1-.69,1.43,2.85,2.85,0,0,1-1.78.53,2.81,2.81,0,0,1-1.68-.47v.36Z"/><path class="cls-6" d="M136.72,140.49v1.12h-2.21v-.78a2.88,2.88,0,0,1-2,.89,2.23,2.23,0,0,1-1.53-.57,2,2,0,0,1,0-3,2.43,2.43,0,0,1,1.66-.59,3.21,3.21,0,0,1,1.75.54v-.64a2.49,2.49,0,0,0-.09-.76,1,1,0,0,0-.44-.47,1.61,1.61,0,0,0-.89-.22,1.47,1.47,0,0,0-1.38.76l-1.21-.32a2.89,2.89,0,0,1,2.78-1.5,3.6,3.6,0,0,1,1.25.2,1.8,1.8,0,0,1,.79.5,1.73,1.73,0,0,1,.35.67,5.17,5.17,0,0,1,.09,1.14v3Zm-2.33-1.27a2.73,2.73,0,0,0-1.66-.64,1.24,1.24,0,0,0-.87.31,1,1,0,0,0-.36.79,1.07,1.07,0,0,0,.31.76,1.17,1.17,0,0,0,.84.3,2.5,2.5,0,0,0,1.74-.77Z"/><path class="cls-6" d="M137.79,141.61V140h1.64v1.63Zm1.15-2.5h-.68l-.33-3.93v-2.81h1.34v2.81Z"/></g></g></g></svg>