<svg xmlns="http://www.w3.org/2000/svg" viewBox="0 0 136.03 139.6"><defs><style>.cls-1{isolation:isolate;}.cls-2{fill:#e30613;}.cls-2,.cls-5,.cls-6,.cls-7,.cls-8{fill-rule:evenodd;}.cls-3{fill:#fff;}.cls-4,.cls-8{fill:#1d1d1b;}.cls-5{fill:#ffd000;}.cls-6{fill:#f59c00;}.cls-7{fill:#bb1e2c;mix-blend-mode:multiply;}.cls-9{fill:#fd0;stroke:#fd0;stroke-linecap:round;stroke-linejoin:round;stroke-width:0.06px;}</style></defs><title>Asset 1</title><g class="cls-1"><g id="Layer_2" data-name="Layer 2"><g id="Layer_1-2" data-name="Layer 1"><path class="cls-2" d="M1,120.38v-7H3.48V97.29H.92V90.37H3.48V84.46c0-4,1.53-10.82,11.77-10.82a29,29,0,0,1,8.34,1.26L20.4,81a9.6,9.6,0,0,0-3.16-.47c-1.72,0-2.59,1.32-2.59,3.91v5.91h5.68v6.92H14.65v16.12h3.74v7Z"/><path class="cls-3" d="M15.25,74.24a30.41,30.41,0,0,1,7.48,1l-2.63,5A10.77,10.77,0,0,0,17.24,80c-1.46,0-3.19.79-3.19,4.51V91h5.68v5.72H14.05V114h3.74v5.78H1.59V114H4.08V96.69H1.52V91H4.08V84.46C4.08,79.8,6,74.24,15.25,74.24m0-1.2C4,73,2.88,80.9,2.88,84.46v5.31H.32v8.12H2.88v14.92H.39V121H19v-8.18H15.25V97.89h5.68V89.77H15.25V84.46c0-2.24.62-3.31,2-3.31a8.17,8.17,0,0,1,3.44.63l3.74-7.18C22.8,73.79,18.49,73,15.25,73Z"/><path class="cls-2" d="M41,121.2a17.75,17.75,0,0,1-12.66-4.86,15.1,15.1,0,0,1-4.16-11.08C24.21,95,32.5,89.62,40.66,89.62c10,.13,16.58,6.37,16.75,15.89a15,15,0,0,1-4.12,11A17,17,0,0,1,41,121.2Zm-.31-24.66c-2.8,0-4.91,3.77-4.91,8.78,0,5.35,2.14,9.09,5.22,9.09,2.9,0,4.84-3.58,4.84-8.91s-2-8.9-5.14-9Z"/><path class="cls-3" d="M40.65,90.22c9.8.13,16,6,16.16,15.3a14.4,14.4,0,0,1-4,10.58A16.46,16.46,0,0,1,41,120.6a17.18,17.18,0,0,1-12.23-4.68,14.5,14.5,0,0,1-4-10.66c.06-9.87,8-15,15.9-15M41,115c3.3,0,5.44-3.73,5.44-9.51S44.16,96,40.65,95.94c-3.14,0-5.5,4-5.5,9.37,0,5.71,2.39,9.7,5.82,9.7m-.32-26c-8.61,0-17,5.81-17.1,16.23C23.42,116.3,32,121.8,41,121.8c9.49,0,17.17-5.93,17-16.3S50.52,89.15,40.65,89ZM41,113.81c-2.63,0-4.62-3.38-4.62-8.5,0-4.55,1.87-8.17,4.3-8.17,2.94.06,4.56,3.68,4.56,8.36s-1.56,8.31-4.24,8.31Z"/><path class="cls-2" d="M83,120.38V103.65c0-1.59,0-3.77-1.29-5.09a3.8,3.8,0,0,0-2.81-1c-2.88,0-4.53,2.33-4.53,6.4v9.47h4.5v7h-18v-7h2.62V97.29H60.86V90.37H73.14l1.68,4.53.66-.91c2.28-3.15,5.12-4.74,8.44-4.74,7.3,0,10.7,4.17,10.7,13.13v11h2.93v7Z"/><path class="cls-3" d="M83.92,89.85c7,0,10.1,3.86,10.1,12.53V114H97v5.78H83.62V103.65c0-1.6,0-4-1.47-5.51a4.35,4.35,0,0,0-3.22-1.2c-3.27,0-5.14,2.55-5.14,7V114h4.5v5.78H61.46V114h2.62V96.69H61.46V91H72.72l1.15,3.09.78,2.1L76,94.34c2.19-3,4.8-4.49,8-4.49m0-1.2c-3.93,0-6.81,2.06-8.93,5l-1.43-3.87H60.26v8.12h2.62v14.92H60.26V121H79.49v-8.18H75v-8.87c0-2.68.75-5.8,3.94-5.8,3.68,0,3.49,3.68,3.49,5.8v17H98.15v-8.18H95.22V102.38c0-6.55-1.62-13.73-11.3-13.73Z"/><path class="cls-2" d="M117.2,121.2a17.75,17.75,0,0,1-12.66-4.86,15.1,15.1,0,0,1-4.16-11.08c.06-10.27,8.35-15.64,16.5-15.64,10,.13,16.59,6.37,16.76,15.89a15,15,0,0,1-4.12,11A17,17,0,0,1,117.2,121.2Zm-.32-24.66c-2.79,0-4.9,3.77-4.9,8.78,0,5.35,2.14,9.09,5.22,9.09,2.89,0,4.84-3.58,4.84-8.91s-2-8.9-5.14-9Z"/><path class="cls-3" d="M116.88,90.22c9.8.13,16,6,16.16,15.3a14.44,14.44,0,0,1-3.95,10.58,16.46,16.46,0,0,1-11.9,4.5A17.17,17.17,0,0,1,105,115.92a14.5,14.5,0,0,1-4-10.66c.06-9.87,8-15,15.9-15m.31,24.79c3.31,0,5.45-3.73,5.45-9.51s-2.25-9.49-5.76-9.56c-3.14,0-5.5,4-5.5,9.37,0,5.71,2.39,9.7,5.81,9.7m-.31-26c-8.61,0-17,5.81-17.1,16.23-.13,11,8.49,16.55,17.41,16.55,9.49,0,17.17-5.93,17.05-16.3S126.75,89.15,116.88,89Zm.31,24.79c-2.62,0-4.61-3.38-4.61-8.5,0-4.55,1.87-8.17,4.3-8.17,2.94.06,4.56,3.68,4.56,8.36s-1.56,8.31-4.25,8.31Z"/><path class="cls-4" d="M19.32,121.31H.06v-8.83h2.5V98.21H0V89.45H2.56v-5c0-4.38,1.65-11.75,12.69-11.75,3.26,0,7.62.75,9.32,1.6l.29.15-4,7.74-.28-.13a8.12,8.12,0,0,0-3.3-.59c-.78,0-1.67.34-1.67,3v5h5.68v8.76H15.57v14.27h3.75ZM.71,120.66h18v-7.53H14.92V97.56H20.6V90.09H14.92V84.46c0-.9,0-3.63,2.32-3.63a9.11,9.11,0,0,1,3.29.53L24,74.75a28.48,28.48,0,0,0-8.73-1.39c-10.48,0-12,7-12,11.1v5.63H.65v7.47H3.21v15.57H.71Z"/><path class="cls-4" d="M41,122.12A18.68,18.68,0,0,1,27.66,117a16,16,0,0,1-4.44-11.74C23.27,97,29.28,88.7,40.66,88.7c10.56.13,17.49,6.72,17.67,16.8A15.89,15.89,0,0,1,54,117.17,18,18,0,0,1,41,122.12Zm-.32-32.78c-10.95,0-16.73,8-16.78,15.91a15.37,15.37,0,0,0,4.25,11.29A18.06,18.06,0,0,0,41,121.47a17.35,17.35,0,0,0,12.52-4.76,15.26,15.26,0,0,0,4.2-11.2C57.51,95.82,50.83,89.47,40.65,89.34ZM41,114.13c-2.91,0-4.95-3.63-4.95-8.81,0-4.85,2-8.51,4.64-8.51h0c3,.07,4.88,3.48,4.88,8.69S43.7,114.13,41,114.13Zm-.32-16.67c-2.23,0-4,3.45-4,7.86,0,4.73,1.81,8.16,4.3,8.16s3.92-3.21,3.92-8S43.23,97.52,40.65,97.46Z"/><path class="cls-4" d="M98.48,121.31H82.1V103.65c0-1.43,0-3.39-1-4.44a2.9,2.9,0,0,0-2.15-.75c-3,0-3.6,3-3.6,5.48v8.54h4.49v8.83H59.93v-8.83h2.63V98.21H59.93V89.45H73.78L75.09,93a10.9,10.9,0,0,1,8.83-4.65c7.82,0,11.62,4.6,11.62,14.06v10.1h2.94Zm-15.73-.65H97.83v-7.53H94.9V102.38c0-5.76-1.14-13.41-11-13.41-3.42,0-6.33,1.64-8.67,4.86l-.35.49-1.57-4.23H60.58v7.47H63.2v15.57H60.58v7.53H79.16v-7.53H74.67v-9.19c0-4,1.51-6.13,4.25-6.13a3.51,3.51,0,0,1,2.61,1c1.23,1.23,1.22,3.34,1.22,4.89v17Z"/><path class="cls-4" d="M117.2,122.12A18.72,18.72,0,0,1,103.88,117a16,16,0,0,1-4.43-11.74c0-8.23,6-16.55,17.43-16.55,10.56.13,17.5,6.72,17.68,16.8a15.86,15.86,0,0,1-4.39,11.67A18,18,0,0,1,117.2,122.12Zm-.32-32.78c-10.95,0-16.73,8-16.78,15.91a15.37,15.37,0,0,0,4.25,11.29,18.06,18.06,0,0,0,12.85,4.93,17.3,17.3,0,0,0,12.51-4.76,15.18,15.18,0,0,0,4.2-11.2C133.74,95.82,127.05,89.47,116.88,89.34Zm.32,24.79c-2.92,0-5-3.63-5-8.81,0-4.77,2-8.51,4.63-8.51h0c3,.07,4.87,3.48,4.87,8.69S119.93,114.13,117.2,114.13Zm-.32-16.67c-2.23,0-4,3.45-4,7.86,0,4.73,1.81,8.16,4.3,8.16,2.34,0,3.92-3.21,3.92-8S119.45,97.52,116.88,97.46Z"/><path class="cls-5" d="M61.75,20.47S73.13,23.3,72.33,30.9L62,30.44Z"/><path class="cls-6" d="M68.93,23.94a6.35,6.35,0,0,1-1.33,3,8.17,8.17,0,0,1-4,2.52,4.24,4.24,0,0,1-1.61.21l0,.77,10.37.46C72.65,27.85,71,25.58,68.93,23.94Z"/><path class="cls-2" d="M55.14,14.61s8.62-5,4.12-10.15S52.1,6.91,51.35,7c-1.5-5.52-9.1-7.5-10.56,1.3-2-.32-4.13-2.57-6.55,1.22-4.22,6.62,5.23,7.29,5.23,7.29Z"/><path class="cls-7" d="M60,5.46C59.72,7.73,57.3,9.53,55.1,10a11.26,11.26,0,0,1-2.9-.1c-.9-.06-1.83.1-2.72,0a6.39,6.39,0,0,1-3.88-1.7,5.07,5.07,0,0,1-.85-5.69c-1.76.51-3.32,2.26-3.94,5.71a2.91,2.91,0,0,1,0,2.53c-1.39,3-5,1.66-7.14-.22-2.77,5.74,5.75,6.35,5.75,6.35l15.67-2.18S62.68,10.21,60,5.46Z"/><path class="cls-4" d="M53.4,27.4a3.19,3.19,0,1,1,3.25-3.19A3.22,3.22,0,0,1,53.4,27.4Zm0-5a1.77,1.77,0,1,0,1.83,1.77A1.81,1.81,0,0,0,53.4,22.44Z"/><path class="cls-4" d="M72.33,32.68a1,1,0,0,1-.24,0,1.77,1.77,0,0,1-1.52-2c.75-5.59-8.2-7.64-8.29-7.66a1.78,1.78,0,0,1,.77-3.47,21.86,21.86,0,0,1,5.72,2.3c4,2.35,5.82,5.57,5.32,9.3A1.78,1.78,0,0,1,72.33,32.68Z"/><path class="cls-4" d="M72.33,32.68h-.19L61.26,31.53A1.77,1.77,0,1,1,61.62,28l10.89,1.14a1.77,1.77,0,0,1-.18,3.54Z"/><path class="cls-4" d="M38.21,18.45h-.14a8.13,8.13,0,0,1-5.48-2.76,6,6,0,0,1-1-5c.61-3.14,2.34-4.4,3.68-4.91a7.08,7.08,0,0,1,4.24-.09A8.16,8.16,0,0,1,45,.25a5.34,5.34,0,0,1,4.35.48,7.3,7.3,0,0,1,2.48,2.69A6.82,6.82,0,0,1,56.32,1.2c1.33,0,3.35.51,5.14,3.29a6.81,6.81,0,0,1,1,6.2c-1.39,3.83-6.25,5.44-6.8,5.61a1.78,1.78,0,1,1-1.06-3.39c1-.32,3.85-1.58,4.52-3.44a3.4,3.4,0,0,0-.65-3.05c-.49-.76-1.25-1.67-2-1.67h0c-1.19,0-2.81,1.87-3.53,3.11l-2.32,4-1-4.54c-.15-.7-.85-2.85-2-3.56a1.77,1.77,0,0,0-1.51-.12c-3.19.94-3.45,4.43-3.46,4.58l-.22,3.32-2.64-2a4.51,4.51,0,0,0-3.27-.38c-.25.11-1,.44-1.37,2.23a2.59,2.59,0,0,0,.33,2.15,4.71,4.71,0,0,0,2.93,1.36,1.78,1.78,0,0,1-.14,3.55Z"/><path class="cls-4" d="M72.61,62.86a2,2,0,0,1-2-1.74C69.06,47.79,58.9,45.4,49.08,43.1,41.15,41.24,33,39.31,31.46,31a13.78,13.78,0,0,1,2.86-11.38,21.16,21.16,0,0,1,13.58-7c12.56-.41,16.52,7.44,16.87,12.15.36,4.94-4.19,9.22-4.39,9.4a2,2,0,0,1-2.68-2.89h0c.93-.87,3.32-3.7,3.13-6.23-.06-.91-1-8.86-12.81-8.49a17.15,17.15,0,0,0-10.64,5.58,9.81,9.81,0,0,0-2,8.21c1,5.45,6.19,6.94,14.63,8.92,10.1,2.37,22.67,5.32,24.59,21.4a2,2,0,0,1-1.72,2.19Z"/><path class="cls-8" d="M73,54.61A23.82,23.82,0,0,0,59.34,42.44,25.14,25.14,0,0,0,51,40.9a22.06,22.06,0,0,0-9.78,2.16,27.8,27.8,0,0,0-7.85,5.69,16.25,16.25,0,0,0-2.16,2.73A6.64,6.64,0,0,0,30,54.32c0,.46.16.69.46.69s.45-.19.68-.57c.38-.61.87-1.31,1.48-2.11a14.21,14.21,0,0,1,2.5-2.44,36,36,0,0,1,6-4,17.73,17.73,0,0,1,8.65-2,22,22,0,0,1,7.85,1.42,21.56,21.56,0,0,1,6.65,4,19.78,19.78,0,0,1,4.61,6,16.19,16.19,0,0,1,1.7,7.28,23.12,23.12,0,0,1-1.08,6.89,23.6,23.6,0,0,1-3.07,6.37,20.28,20.28,0,0,1-4.83,5,16.13,16.13,0,0,1-6.37,2.73,22,22,0,0,1-7.06.22,13.12,13.12,0,0,1-6.37-2.61q.57-1.71,1.94-5.35T46.59,68Q48,64,49.1,60.3a22,22,0,0,0,1.08-5.41,6.24,6.24,0,0,0-1.82-4.49A5.84,5.84,0,0,0,44,48.52a10.39,10.39,0,0,0-6.37,2.22,20.3,20.3,0,0,0-5,5.46,25.65,25.65,0,0,0-3.07,6.94,17.11,17.11,0,0,0-.68,6.54A17.17,17.17,0,0,0,34.14,82c-.23.6-.66,1.8-1.31,3.58a74.9,74.9,0,0,0-2.54,7.36,23.07,23.07,0,0,0-.57,5.35c0,1.59.63,2.54,1.77,2.84a3,3,0,0,0,2.44-.11,3.12,3.12,0,0,0,1.65-1.82c.61-1.75,1.19-3.55,1.76-5.41s2.11-5.39,2.71-7.13a20.69,20.69,0,0,0,9.1,2.62A27,27,0,0,0,58.6,88a20.74,20.74,0,0,0,6.88-3.76,24.8,24.8,0,0,0,5.06-5.69,28.41,28.41,0,0,0,3.18-6.71A25.1,25.1,0,0,0,75,65,21.43,21.43,0,0,0,73,54.61ZM36.73,76.34a10.08,10.08,0,0,1-1.28-3,23.43,23.43,0,0,1-.4-2.79,24.48,24.48,0,0,1,.51-4.89A18.23,18.23,0,0,1,37.21,61,15.32,15.32,0,0,1,40,57.11a9.28,9.28,0,0,1,3.83-2.39l.67-.19a99.72,99.72,0,0,1-3.82,10.94C39.34,68.91,38.17,72.85,36.73,76.34Z"/><path class="cls-8" d="M91.3,79.35a1.17,1.17,0,0,0-1.19.34c-.61.61-1.26,1.25-1.94,1.94a3.82,3.82,0,0,1-2.5,1.13,8.18,8.18,0,0,0,1.31-2c.34-.76.66-1.56,1-2.39A11.69,11.69,0,0,0,88.63,73a6.85,6.85,0,0,0-1.37-3.47,3.16,3.16,0,0,0-2.5-1.19,4.25,4.25,0,0,0-3,1.48,6.82,6.82,0,0,0-1.59,3,12.69,12.69,0,0,0-.51,4,13.87,13.87,0,0,0,.62,3.87A4.79,4.79,0,0,0,82,83.22c-.46.38-.87.72-1.25,1a2.26,2.26,0,0,1-1.48.46c-.84,0-1.37-.69-1.59-2s.19-3.53,1.25-6.48q1.14-3.08.57-4.33a1.68,1.68,0,0,0-1.88-1.08,5.71,5.71,0,0,0-2.9,1.65,10.16,10.16,0,0,0-2.5,3.76,15.86,15.86,0,0,0-.91,4.09,14.36,14.36,0,0,0,.17,4.32A6.78,6.78,0,0,0,73.16,88a4.67,4.67,0,0,0,3.64,1.36,8.3,8.3,0,0,0,3.69-1.08A13.23,13.23,0,0,0,84.87,84a5.86,5.86,0,0,0,3.93-1.3,29.47,29.47,0,0,0,2.56-2.45C91.89,79.73,91.87,79.43,91.3,79.35Zm-6.14-2.22a15.75,15.75,0,0,1-2.11,4.72A5.4,5.4,0,0,1,82,78.72,30.69,30.69,0,0,1,82,75.37a3.58,3.58,0,0,1,.28-1.2,6.32,6.32,0,0,1,.63-1.25,1.18,1.18,0,0,1,.85-.57c.34,0,.7.21,1.08.74A5.33,5.33,0,0,1,85.16,77.13Z"/><path class="cls-8" d="M97.84,73.09a91.68,91.68,0,0,1,2.5-8.87,9.87,9.87,0,0,0,2.39.17,4.27,4.27,0,0,0,2.5-1.08,7.06,7.06,0,0,0,1.6-5.12,9.35,9.35,0,0,0-1.48-5.12,3.2,3.2,0,0,0-2-1.42,4.25,4.25,0,0,0-2.27.29,6.62,6.62,0,0,0-2.11,1.36q-1,.91-1.65,1.71a21.44,21.44,0,0,0-1.7,2.5,24.75,24.75,0,0,0-1.48,3c-.61-.15-1.27-.29-2-.4A10.5,10.5,0,0,0,89.93,60a6.64,6.64,0,0,0-2,.39,2.48,2.48,0,0,0-1.36,1.25,1.16,1.16,0,0,0-.11.86.74.74,0,0,0,.34.51c.07.08.13,0,.17-.17a1.26,1.26,0,0,1,.4-.63,2.68,2.68,0,0,1,1-.57,6.46,6.46,0,0,1,1.93-.22,4.82,4.82,0,0,1,1.42.22c.5.16,1,.31,1.65.46-.6,1.52-1.25,3.45-1.93,5.8A66.55,66.55,0,0,0,89.82,75a52,52,0,0,0-.74,7A12.19,12.19,0,0,0,90,87.65a3.1,3.1,0,0,0,.91.8,5.3,5.3,0,0,0,1.54.57,12.25,12.25,0,0,0,2.67.23,5.75,5.75,0,0,0,3.7-1.6q1.88-1.59,4.49-6.59c.08-.23.15-.5.23-.8.15-.53,0-.8-.34-.8s-.65.23-.8.69c-.15.3-.42.77-.8,1.42a20.43,20.43,0,0,1-1.25,1.88c-.45.6-.91,1.15-1.36,1.64a2.78,2.78,0,0,1-1.14.86c-.61.15-1-.31-1.19-1.37a17.39,17.39,0,0,1,0-4.49A59.58,59.58,0,0,1,97.84,73.09Zm4.1-13.76a10.29,10.29,0,0,1,.91-2.16c.37-.38.72-.3,1,.23A14.94,14.94,0,0,1,104,59a4.58,4.58,0,0,1-.17,1.65,2.18,2.18,0,0,1-.91,1.19,2.58,2.58,0,0,1-1.93.23C101.4,61,101.71,60.09,101.94,59.33Z"/><path class="cls-8" d="M112.66,72.61a89.26,89.26,0,0,1,2.51-8.88,9.75,9.75,0,0,0,2.38.17,4.2,4.2,0,0,0,2.51-1.08,7.06,7.06,0,0,0,1.59-5.12,9.29,9.29,0,0,0-1.48-5.11,3.18,3.18,0,0,0-2-1.43,4.27,4.27,0,0,0-2.27.29,6.79,6.79,0,0,0-2.11,1.36q-1,.91-1.65,1.71a21.44,21.44,0,0,0-1.7,2.5,26.35,26.35,0,0,0-1.48,3c-.61-.15-1.27-.29-2-.4s-1.79-.73-2.16-.11c-.91,1.5,2.13,2.22.4,1.42-.42-.19.92.08,1.42.23s1,.3,1.65.45c-.61,1.52-1.25,3.45-1.94,5.8a66.55,66.55,0,0,0-1.65,7.17,53.81,53.81,0,0,0-.74,7,12.23,12.23,0,0,0,.91,5.58,3.22,3.22,0,0,0,.91.79,5.42,5.42,0,0,0,1.54.57,12.32,12.32,0,0,0,2.67.23,5.76,5.76,0,0,0,3.7-1.59c1.25-1.07,2.75-3.26,4.49-6.6.08-.23.15-.49.23-.8.15-.53,0-.79-.34-.79a.83.83,0,0,0-.8.68c-.15.3-.41.78-.79,1.42s-.8,1.27-1.25,1.88-.91,1.15-1.37,1.65a2.7,2.7,0,0,1-1.14.85c-.6.15-1-.3-1.19-1.37a17.38,17.38,0,0,1,0-4.49A61.63,61.63,0,0,1,112.66,72.61Zm4.1-13.77a10.85,10.85,0,0,1,.91-2.16c.38-.38.72-.3,1,.23a14.94,14.94,0,0,1,.17,1.59,4.58,4.58,0,0,1-.17,1.65,2.14,2.14,0,0,1-.91,1.19,2.57,2.57,0,0,1-1.93.23C116.23,60.51,116.53,59.6,116.76,58.84Z"/><path class="cls-8" d="M135.58,78.86a1.21,1.21,0,0,0-1.19.34l-1.93,1.94A3.84,3.84,0,0,1,130,82.27a8,8,0,0,0,1.31-2c.34-.76.67-1.56,1-2.39a11.67,11.67,0,0,0,.68-5.35A6.89,6.89,0,0,0,131.55,69,3.21,3.21,0,0,0,129,67.83a4.23,4.23,0,0,0-2.95,1.48,6.78,6.78,0,0,0-1.6,3,12.72,12.72,0,0,0-.51,4,14.24,14.24,0,0,0,.63,3.86,4.83,4.83,0,0,0,1.7,2.62c-.45.38-.87.72-1.25,1a2.26,2.26,0,0,1-1.48.46c-.83,0-1.36-.68-1.59-2s.19-3.53,1.25-6.48q1.14-3.08.57-4.33a1.67,1.67,0,0,0-1.88-1.08,5.71,5.71,0,0,0-2.9,1.65,10.29,10.29,0,0,0-2.5,3.76,16.39,16.39,0,0,0-.91,4.09,15,15,0,0,0,.17,4.32,7,7,0,0,0,1.65,3.42,4.69,4.69,0,0,0,3.64,1.36,8.37,8.37,0,0,0,3.7-1.08,13.48,13.48,0,0,0,4.38-4.26,5.84,5.84,0,0,0,3.92-1.31,25.66,25.66,0,0,0,2.56-2.45C136.17,79.24,136.15,78.94,135.58,78.86Zm-6.14-2.22a16,16,0,0,1-2.1,4.72,5.26,5.26,0,0,1-1.08-3.12c0-1.18,0-2.3,0-3.36a3.54,3.54,0,0,1,.29-1.19,6.61,6.61,0,0,1,.62-1.25,1.14,1.14,0,0,1,.86-.57c.34,0,.7.21,1.08.74A5.3,5.3,0,0,1,129.44,76.64Z"/><path class="cls-4" d="M126.2,126.26,123.91,125a2.62,2.62,0,0,1,.5-1.77,1.82,1.82,0,0,1,3,1.13c-.43-.21-1.54-.64-1.54-.64s-.52,1.12-.13,1.44,1,.77,1,.77S126.74,126.12,126.2,126.26Z"/><path class="cls-4" d="M129.75,134.11c-.22-.68-1.22-3.91-1.22-3.91l0-.18.65.15.13.07.18,0,.28-2-.37,0-.14.09s-1.26.09-1.41.15-.35.25-.29.36l-1.7-.24-.66-2.28s-.51-1.2-2-.18a13.62,13.62,0,0,0-1.83,3.36c-.53,1.64-.55,2.13,0,2.5-.35,0-4.09.05-4.09.05s-.15.29-.07.39a1.35,1.35,0,0,1,.09.45l6,0a.3.3,0,0,0,.07-.25,1.07,1.07,0,0,0-.09-.24,13.23,13.23,0,0,1,1.52.53c0,.11-1,3.37-1,3.37h-1.15a1,1,0,0,1-.66-1.24,12.11,12.11,0,0,1,.93-1.91h-5.4l-.11.2h-3l-.14.38h2.88s-.57.35-.83.53h-4.3l-.18.42h3.8s-.39.42-.51.6h-5.32l-.18.37h5.17s-.2.38-.3.54h-1.89l-.15.46h1.83l0,.22-.11.05v.31h12.46l.08.68,5.47-3S132,134,129.75,134.11Zm-3.3,1.9a2.42,2.42,0,0,1-1.48.34s.93-2.48,1.33-3.41a.91.91,0,0,0-.49-1.37l-2.39-1,1-2,.18-.2a2.81,2.81,0,0,1,.18.36,6.77,6.77,0,0,0,.46.75l2,.11.36.06.17.18s.07.89.07,2.83A4.29,4.29,0,0,1,126.45,136Z"/><path class="cls-4" d="M112,131.41l-.11.31h7.86s.46,0,.55-.62.66-4,.66-4,.27-.57-.33-.59-4.29,0-4.29,0a.58.58,0,0,0-.55.5c-.09.49-.38,2.35-.38,2.35h-1.25l-.1.38h1.26l-.11.61h-2l-.11.38h2l-.09.64Z"/><path class="cls-4" d="M117.23,138.67a1.31,1.31,0,0,1-1.26-1.09H115v0a1.91,1.91,0,0,0,2,2,2.33,2.33,0,0,0,2.42-2v0h-.94A1.32,1.32,0,0,1,117.23,138.67Z"/><path class="cls-4" d="M130.58,136.21a1.39,1.39,0,0,1,.56,1.09,1.28,1.28,0,1,1-2.56,0h0l-1.07.59a2.18,2.18,0,0,0,2.13,1.69,2.5,2.5,0,0,0,2.52-2.36,2.4,2.4,0,0,0-.6-1.56Z"/><rect class="cls-4" x="0.54" y="126.33" width="107.53" height="11.4"/><path class="cls-9" d="M16.73,134.12v1.46H15.38v-1.46Z"/><path class="cls-9" d="M18.59,134.12v1.46H17.24v-1.46Z"/><path class="cls-9" d="M20.45,134.12v1.46H19.1v-1.46Z"/><path class="cls-9" d="M25.2,128.4v7.18H23.41v-.42a2.19,2.19,0,0,1-.55.4,1.49,1.49,0,0,1-.59.13,1.16,1.16,0,0,1-.72-.22,1,1,0,0,1-.4-.51,3.54,3.54,0,0,1-.08-.94v-2.76a3.67,3.67,0,0,1,.08-1,1,1,0,0,1,.4-.5,1.29,1.29,0,0,1,.74-.21,1.51,1.51,0,0,1,.61.12,1.59,1.59,0,0,1,.51.36V128.4Zm-1.79,2.77a1,1,0,0,0-.06-.43.23.23,0,0,0-.22-.11c-.11,0-.18,0-.21.1a1,1,0,0,0-.06.44v2.89a1.46,1.46,0,0,0,.05.47.21.21,0,0,0,.21.12.24.24,0,0,0,.23-.13,1.86,1.86,0,0,0,.06-.62Z"/><path class="cls-9" d="M30.09,132.74H27.76V134a1.37,1.37,0,0,0,.06.51.22.22,0,0,0,.22.12.29.29,0,0,0,.28-.16,1.81,1.81,0,0,0,.07-.59v-.78h1.7v.44a4.38,4.38,0,0,1-.07.84,1.93,1.93,0,0,1-.32.62,1.52,1.52,0,0,1-.65.5,2.48,2.48,0,0,1-1,.17,3,3,0,0,1-1-.16,1.55,1.55,0,0,1-.68-.46,1.76,1.76,0,0,1-.34-.63,4.19,4.19,0,0,1-.09-1v-1.71a2.88,2.88,0,0,1,.21-1.22,1.47,1.47,0,0,1,.68-.69,2.41,2.41,0,0,1,1.1-.23,2.45,2.45,0,0,1,1.24.28,1.58,1.58,0,0,1,.69.76,3.61,3.61,0,0,1,.2,1.33Zm-1.8-1v-.43a2.3,2.3,0,0,0-.05-.59.19.19,0,0,0-.2-.13c-.12,0-.2,0-.23.11a2.27,2.27,0,0,0,0,.61v.43Z"/><path class="cls-9" d="M34.49,128.4v7.18H32.64V128.4Z"/><path class="cls-9" d="M36.91,132H35.23v-.39a2.71,2.71,0,0,1,.16-1.06,1.44,1.44,0,0,1,.63-.65,3,3,0,0,1,2.61,0,1.26,1.26,0,0,1,.55.79,12.3,12.3,0,0,1,.1,1.93v3H37.53v-.52a1.09,1.09,0,0,1-1,.63,1.58,1.58,0,0,1-.87-.26,1.35,1.35,0,0,1-.39-1.16v-.49a1.41,1.41,0,0,1,.21-.9,3,3,0,0,1,1-.56,3,3,0,0,0,1-.46,1.28,1.28,0,0,0,.06-.49,1.52,1.52,0,0,0-.07-.6.23.23,0,0,0-.23-.14c-.12,0-.19,0-.22.12a2.21,2.21,0,0,0-.05.61Zm.57.81a1.36,1.36,0,0,0-.5.53,2.32,2.32,0,0,0-.07.61,1.76,1.76,0,0,0,.06.59.24.24,0,0,0,.24.14.22.22,0,0,0,.22-.11,1.83,1.83,0,0,0,0-.55Z"/><path class="cls-9" d="M43.65,128.4v1.7a1.54,1.54,0,0,1,.5-.39,1.45,1.45,0,0,1,.59-.12,1.59,1.59,0,0,1,.64.11.91.91,0,0,1,.41.33.87.87,0,0,1,.17.4,7.56,7.56,0,0,1,0,.86v2.65a3.91,3.91,0,0,1-.09,1,1,1,0,0,1-.4.55,1.29,1.29,0,0,1-.76.23,1.31,1.31,0,0,1-.59-.14,1.59,1.59,0,0,1-.5-.41l-.11.44H41.86V128.4Zm.55,3a1.84,1.84,0,0,0-.06-.6.23.23,0,0,0-.23-.14.2.2,0,0,0-.21.12,2.36,2.36,0,0,0-.05.62v2.53a1.87,1.87,0,0,0,.06.61.21.21,0,0,0,.22.14.22.22,0,0,0,.22-.14,2.71,2.71,0,0,0,.05-.66Z"/><path class="cls-9" d="M48.56,129.69l-.07.78a1.31,1.31,0,0,1,1.13-.88v2.07a1.53,1.53,0,0,0-.73.13.58.58,0,0,0-.28.37,6.38,6.38,0,0,0,0,1.1v2.32h-1.8v-5.89Z"/><path class="cls-9" d="M51.8,132H50.12v-.39a2.71,2.71,0,0,1,.16-1.06,1.44,1.44,0,0,1,.63-.65,2.38,2.38,0,0,1,1.23-.28,2.33,2.33,0,0,1,1.37.32,1.24,1.24,0,0,1,.56.79,12.76,12.76,0,0,1,.09,1.93v3H52.42v-.52a1.1,1.1,0,0,1-.43.47,1.11,1.11,0,0,1-.61.16,1.56,1.56,0,0,1-.87-.26,1.35,1.35,0,0,1-.39-1.16v-.49a1.41,1.41,0,0,1,.21-.9,3,3,0,0,1,1-.56,3,3,0,0,0,1-.46,1.28,1.28,0,0,0,.06-.49,1.52,1.52,0,0,0-.07-.6.24.24,0,0,0-.23-.14c-.12,0-.19,0-.22.12a2.21,2.21,0,0,0-.05.61Zm.57.81a1.36,1.36,0,0,0-.5.53,2,2,0,0,0-.07.61,1.76,1.76,0,0,0,.06.59.24.24,0,0,0,.24.14.23.23,0,0,0,.22-.11,1.83,1.83,0,0,0,0-.55Z"/><path class="cls-9" d="M58.62,131.57H57v-.32a1.64,1.64,0,0,0,0-.51c0-.08-.11-.11-.23-.11a.26.26,0,0,0-.23.1.51.51,0,0,0-.08.3,1.82,1.82,0,0,0,0,.4.66.66,0,0,0,.23.27,4.45,4.45,0,0,0,.77.44,3,3,0,0,1,1,.72,1.69,1.69,0,0,1,.24,1,2.59,2.59,0,0,1-.18,1.09,1.29,1.29,0,0,1-.63.56,2.55,2.55,0,0,1-1.05.2,2.91,2.91,0,0,1-1.17-.21,1.3,1.3,0,0,1-.67-.58,2.58,2.58,0,0,1-.18-1.1v-.29h1.59v.38a1.91,1.91,0,0,0,.06.61.23.23,0,0,0,.23.15.34.34,0,0,0,.27-.1.7.7,0,0,0,.08-.4.94.94,0,0,0-.1-.53,9.29,9.29,0,0,0-1-.63,2.32,2.32,0,0,1-1-.81,2,2,0,0,1-.17-.85,2.21,2.21,0,0,1,.19-1.05,1.18,1.18,0,0,1,.63-.51,2.74,2.74,0,0,1,1-.18,2.9,2.9,0,0,1,1,.14,1.4,1.4,0,0,1,.63.4,1,1,0,0,1,.27.45,3.51,3.51,0,0,1,0,.65Z"/><path class="cls-9" d="M61,132H59.34v-.39a2.91,2.91,0,0,1,.16-1.06,1.55,1.55,0,0,1,.63-.65,2.4,2.4,0,0,1,1.24-.28,2.37,2.37,0,0,1,1.37.32,1.22,1.22,0,0,1,.55.79,11.13,11.13,0,0,1,.1,1.93v3H61.64v-.52a1.14,1.14,0,0,1-.42.47,1.12,1.12,0,0,1-.62.16,1.55,1.55,0,0,1-.86-.26c-.27-.18-.4-.57-.4-1.16v-.49a1.41,1.41,0,0,1,.21-.9,3.11,3.11,0,0,1,1-.56,3,3,0,0,0,.94-.46,1.28,1.28,0,0,0,.06-.49,1.84,1.84,0,0,0-.06-.6.25.25,0,0,0-.23-.14c-.13,0-.2,0-.23.12a2.4,2.4,0,0,0,0,.61Zm.56.81a1.44,1.44,0,0,0-.5.53,2.39,2.39,0,0,0-.06.61,1.76,1.76,0,0,0,.06.59.23.23,0,0,0,.23.14c.12,0,.19,0,.22-.11a1.53,1.53,0,0,0,.05-.55Z"/><path class="cls-9" d="M67.57,132H65.89v-.39a2.71,2.71,0,0,1,.16-1.06,1.44,1.44,0,0,1,.63-.65,3,3,0,0,1,2.61,0,1.26,1.26,0,0,1,.55.79,12.76,12.76,0,0,1,.09,1.93v3H68.19v-.52a1.09,1.09,0,0,1-1,.63,1.56,1.56,0,0,1-.87-.26,1.35,1.35,0,0,1-.39-1.16v-.49a1.41,1.41,0,0,1,.21-.9,3,3,0,0,1,1-.56,3,3,0,0,0,1-.46,1.28,1.28,0,0,0,.06-.49,1.52,1.52,0,0,0-.07-.6.23.23,0,0,0-.23-.14c-.12,0-.19,0-.22.12a2.21,2.21,0,0,0-.05.61Zm.57.81a1.36,1.36,0,0,0-.5.53,2.32,2.32,0,0,0-.07.61,1.76,1.76,0,0,0,.06.59.24.24,0,0,0,.24.14.22.22,0,0,0,.22-.11,1.83,1.83,0,0,0,0-.55Z"/><path class="cls-9" d="M74.41,128.91v.92h.48v.94h-.48v3.15a1.72,1.72,0,0,0,.06.65,1,1,0,0,0,.5.06v1h-.72a4.65,4.65,0,0,1-.88-.05.91.91,0,0,1-.46-.23.83.83,0,0,1-.25-.43,7.66,7.66,0,0,1,0-1.11v-3h-.39v-.94h.39v-.92Z"/><path class="cls-9" d="M79.58,129.69v5.89H77.75l0-.49a1.24,1.24,0,0,1-.46.45,1.28,1.28,0,0,1-.63.15,1.48,1.48,0,0,1-.67-.14,1,1,0,0,1-.39-.38,1.48,1.48,0,0,1-.16-.49c0-.17,0-.51,0-1v-4h1.8v4a4.16,4.16,0,0,0,0,.82.22.22,0,0,0,.23.13c.13,0,.21-.05.23-.14a4.42,4.42,0,0,0,0-.85v-4Z"/><path class="cls-9" d="M86.15,131.92H84.46v-.68a1.25,1.25,0,0,0-.06-.48.21.21,0,0,0-.21-.13.21.21,0,0,0-.21.11,1.34,1.34,0,0,0,0,.5V134a1,1,0,0,0,.08.47.26.26,0,0,0,.48,0,2.08,2.08,0,0,0,.06-.62v-.7h1.6a9,9,0,0,1-.05,1.06,1.68,1.68,0,0,1-.3.72,1.6,1.6,0,0,1-.65.56,2.32,2.32,0,0,1-1,.19,2.37,2.37,0,0,1-1.2-.26,1.4,1.4,0,0,1-.63-.73,3.57,3.57,0,0,1-.19-1.33V131.7a3.23,3.23,0,0,1,.15-1.13,1.46,1.46,0,0,1,.65-.69,2.37,2.37,0,0,1,1.2-.29,2.26,2.26,0,0,1,1.19.29,1.46,1.46,0,0,1,.67.75A4.23,4.23,0,0,1,86.15,131.92Z"/><path class="cls-9" d="M88.47,132H86.78v-.39a2.91,2.91,0,0,1,.16-1.06,1.55,1.55,0,0,1,.63-.65,2.4,2.4,0,0,1,1.24-.28,2.37,2.37,0,0,1,1.37.32,1.22,1.22,0,0,1,.55.79,11.13,11.13,0,0,1,.1,1.93v3H89.08v-.52a1.14,1.14,0,0,1-.42.47,1.12,1.12,0,0,1-.62.16,1.55,1.55,0,0,1-.86-.26,1.35,1.35,0,0,1-.4-1.16v-.49a1.41,1.41,0,0,1,.21-.9,3.11,3.11,0,0,1,1-.56,2.89,2.89,0,0,0,.94-.46,1.28,1.28,0,0,0,.06-.49,1.84,1.84,0,0,0-.06-.6.25.25,0,0,0-.23-.14c-.12,0-.2,0-.23.12a2.4,2.4,0,0,0,0,.61Zm.56.81a1.31,1.31,0,0,0-.49.53,2,2,0,0,0-.07.61,1.76,1.76,0,0,0,.06.59.23.23,0,0,0,.23.14c.12,0,.19,0,.22-.11a1.53,1.53,0,0,0,0-.55Z"/><path class="cls-9" d="M95.29,131.57H93.7v-.32a1.64,1.64,0,0,0,0-.51c0-.08-.11-.11-.23-.11a.26.26,0,0,0-.23.1.51.51,0,0,0-.07.3,1.36,1.36,0,0,0,0,.4.62.62,0,0,0,.22.27,5.15,5.15,0,0,0,.78.44,2.9,2.9,0,0,1,1,.72,1.61,1.61,0,0,1,.25,1,2.42,2.42,0,0,1-.19,1.09,1.22,1.22,0,0,1-.62.56,2.6,2.6,0,0,1-1.06.2,3,3,0,0,1-1.17-.21,1.39,1.39,0,0,1-.67-.58,2.58,2.58,0,0,1-.18-1.1v-.29h1.59v.38a1.91,1.91,0,0,0,.06.61.23.23,0,0,0,.24.15.34.34,0,0,0,.27-.1.72.72,0,0,0,.07-.4.86.86,0,0,0-.1-.53,7.5,7.5,0,0,0-1-.63,2.21,2.21,0,0,1-1-.81,1.87,1.87,0,0,1-.18-.85,2.34,2.34,0,0,1,.19-1.05,1.22,1.22,0,0,1,.63-.51,2.8,2.8,0,0,1,1-.18,3,3,0,0,1,1,.14,1.52,1.52,0,0,1,.63.4,1.06,1.06,0,0,1,.26.45,3.33,3.33,0,0,1,.05.65Z"/><path class="cls-9" d="M97.69,132H96v-.39a2.71,2.71,0,0,1,.16-1.06,1.44,1.44,0,0,1,.63-.65,2.38,2.38,0,0,1,1.23-.28,2.33,2.33,0,0,1,1.37.32,1.24,1.24,0,0,1,.56.79,12.76,12.76,0,0,1,.09,1.93v3H98.31v-.52a1.1,1.1,0,0,1-.43.47,1.12,1.12,0,0,1-.62.16,1.55,1.55,0,0,1-.86-.26,1.35,1.35,0,0,1-.39-1.16v-.49a1.41,1.41,0,0,1,.21-.9,3,3,0,0,1,1-.56,3,3,0,0,0,1-.46,1.28,1.28,0,0,0,.06-.49,1.52,1.52,0,0,0-.07-.6.24.24,0,0,0-.23-.14c-.12,0-.2,0-.22.12a2.21,2.21,0,0,0,0,.61Zm.57.81a1.36,1.36,0,0,0-.5.53,2,2,0,0,0-.07.61,1.76,1.76,0,0,0,.06.59.24.24,0,0,0,.24.14.23.23,0,0,0,.22-.11,1.83,1.83,0,0,0,.05-.55Z"/><path class="cls-9" d="M102.82,128.4l-.29,5.41h-1.39l-.29-5.41Zm-.14,5.74v1.44H101v-1.44Z"/></g></g></g></svg>